<mxfile host="65bd71144e">
    <diagram id="7T7ZKEpl1ie9wVbBJjF_" name="Page-1">
        <mxGraphModel dx="1164" dy="656" grid="1" gridSize="10" guides="1" tooltips="1" connect="1" arrows="1" fold="1" page="1" pageScale="1" pageWidth="1169" pageHeight="827" math="0" shadow="0">
            <root>
                <mxCell id="0"/>
                <mxCell id="1" parent="0"/>
                <mxCell id="ouNmn9zbZDFAW_6o1fG2-1" value="" style="shape=image;verticalLabelPosition=bottom;labelBackgroundColor=#ffffff;verticalAlign=top;aspect=fixed;imageAspect=0;image=data:image/png,iVBORw0KGgoAAAANSUhEUgAAAggAAAElCAYAAACBJhoWAAAgAElEQVR4Xuy9iZJkO3MeNtV3fv7WYtok/RCSZUkhSw4tlEhZCtl+//dhtwNLArl8ueBUVS8zPRE3btc5QCKRyOVDYjm3n3/1t28/+r/b+N+z/91mc2+7Pa/lWfLH7cf4i35zbhmZ0Qv9YPVn1+Z0Ht9dRv119gz0OW3XMDlpvVJNII23F4cskDBVX/LSZSatVm41NcpQybfFi2pWlcf6FYwCyU0Puu7dG9KITLKo3RPd98peobE1PONaan9eWpaINF6/88qi50uJHIYqlnbCm1EA0C6m57oF5lmWXk+qZLa7kYDXWdiW2E+shmD5vTFPV62D9ON18vSyWBh/cPOivnme48cPbeS+DDRdanf0p6ILmcF7449sr9reqS1RT2r2DjnzfHvICo2QHo/xHI0fLmkbQaND9G7fAOFcQeIa3wBh+AJtGvr3N0DYTrPibO5xeCdB+BsgLNhmRPENEKJA/w0QbGT4BQDCf77H81yLrg3ZHmUQCFkOcS+GLcQPMgjEKsfnx3PboL+TKy5NPm1RfXYJZRO6aCpksgFTPddzRtzLHFAWohVt1VGwdzMH3Bz4362Cwri8n102ra0g09EHPlLVSpCtqiuixZ8J5gtEH8kbDczV2dbVWTiSvVD23DbKSs8Lsjb0FF96g/3r9vZDJ+1uE7Ba699+AZLvWclRZpuClQXKcrJa/U8vGzCove3MHMggkMm9UDZ1MsV5Izrc0loWYWcQts40U+O98DIIrzODsN/7NqgBwm3Z665DJg5c9xyI03DE7cHRG0f69ayGVNzBYWLTwEUs/TJdjLKS6B13wHLkWunE85qcEDJLlkH4AIAAOMqSRJ57Rp3L3LF2Egdz29wJmgCfcaNIfiaAsFhTfejBHIhCBPiiAWX+QLyfQAKOwqGcw7CeAQReudJupUzIEHtZAQgnQq2WzQDCDj61nkh6npsXikZp/DffPVOQJBf+RoE0BQiNJk1AiLfNI2FYGxcoXPCW/UAlNUHW2SBDyqbV8QBCi8Ea2BCI2FzgMW6yoTcZQCB5Eo9ojM3SxRuBHgsQWsPYKjJ9rGmXdVCPs8ESh7rQjemXmeicAoRYBggkUI02zt78TlNtZW8//2oCBA8+V8fjznInAOCkqVgtlJOahcWModpY93AggIUz/gDeeLNlOMumXqr/o8wBmaWhM13E0h5Oa/zd5XJ7/bH3HtA+BWQygeSt/5WC8CywP/dDSXWodrnIMD1qmaPJ3kfgouR6FFjw+KzQ4mVCoQdryBUa13ik8Cl9AwVkf7Qp7K16fbacywNnGWZ7rLo0HU03/o0AwtZq6rEFCL2MqDwMlQBCe9VqcchBQIECt8wkDJkQzf7OUV3KInD4pIMQjYbNIozeEVBbo/Z0gEBSpRZP7LLmSZY7qhX/cbtNCaaq6Em31hDVrgKBiOovDxB6YHMlgAECBcN0HDndzE8gHmADk9vPChCasS/e7gAIkXCzWFWzE1UKIeCDTZ2LWsXRVMqcdqKijVcEV0VrlfavuCSfLg92GiScSTjmPc8y7CULPWom8BkggoP9oIOdRpTh3CDBAgSiuADSXGpZe6XZcskM2wsg9KDigIQOJNYSyOYOhbEOUtjgjMnWRwGEUxs7K/88gOBvGa1w+FyAgPS2wtWdZaQDuJOYExos1a8IELjyyL0cGwoRyNBS5c+ViyWrXiKh99sNLGPXZcopszkCe6qTDYl8X4lRruqgkOKFmdPnMQx9jDZXOv8MgMAdQsbDFYDgO5zPAxBa8MR9zwGC7J+XQdCAwTvJsIPvMCKeQSA9eyXgMfcf8Fk9zyLwDEKry7MIu7c0Cnu5gEuieSP6vSA4299wDhA+KABdMNIzgHD7MRMIwVYq7nMvMDSrkMcmN3tPbL39/GtnDwLXggyuo7KZL7ne/+OaMfs7zcYJo9WCsGE8GYh5hcsFmhAFdSKFZu1KsTRdQZLKKpRqlhaoPQkQ3vr6wqi7HEJlrDP5RDQq9I2kHXAkOOd9REN1D6jgbjMzIHKKJx09BQOZgLO26X2Fju5vVKeVvYAYmYGGrqqzspf+vLIt0OslBv57NLfz4nyT3QlIkFo5uNnPpJz4Ukl/Y9RoZPO2hQ4dXgChW+qbONaYAoTZzoZ6+6/RvMxv8DVtzgffjDiAiNWBxos+Cb6tMNPH4zDwgApWrwk37uUDx3+34esIYYA6/C/PHCyfG/Sm6e0up3XqTAw+QCCfBRVTNaIhJK97xs9TSmfuGSnv5wUI0wzhHQAEJlSPl45wIKHKuACBFGCWf2UnEhYPmYTdbGrNH1zyFR5P9wT9yBii9gryueuseBUsRIKszv4RDf6s/R0BBM+BRiCB1MQ6O+QIRetkEjO2hxuUqeycE2uA0N3aLONlFAanQEZ9Q+A+qaBDLQVf7QCpjjHhWbABdhGYVQjvAZwF5xJAEHcl1AFCY0TvcxgyG33X/zhA8DctXg0Jl5xG0pi1Y1puzQECzyB4vD0CIAyt5ZxWLRt1PgYIV8cG1XvGeF3kz6AwjW7fhpArG5vcvU+V/q60PpjX9EfT2Q5mpu/hQ88DvnNMsJPhilcFBixTofccYH+NR4PixeT/9vay9zBkKKwiw9VqFoQrwEDJs0Q7N+ozNa0ESm8AsuDtBK/F4FKygOUMjGQAIZJGpe++UpjNidSUNvipd4tTg6dHGwggjIBHRx939nEfqxx9oAvbOqVOfz4X8GH3RfsbyRLzREaNX9feaAufRq7vPoDQeB8hhkAMb0df3yOPWPKxVmO7ANssM8EF2i9RdwOoJBdYnRLW0szHMClBn+npd92HmNi1xLchJgGEe4DBMh13ieHMq+Wl7x2bvIWjEjzmroPOy+9+FoAAugSPEtLUx1HgjwYIvBvdA3iGrD31Ptw1SERKlBnvvQAho3+kfhcKZ+aeBe5TUFEx2Aog0V3N6FZAgtcXHZASMEKqqNWOwCyZVQ/4mBbPPo6rTu4HCARcZGgjpjQfHkAY9vIYgDBAQgQQkHTQjY2r3FwaWdBHAQQKtdkcQrabAYQLZndcZUrJm1Qd05MVvPs89vMB5Np/mceosAIyCGoTXOF4UKWhEhkPHs0GwtdJXc1j9w36NpWulWPjn0b0bh8rky6vMsoguMciaUbPiWnP5v0GCNVdUpj7C2a/xErG/JEe10F2KrxFAhDWOUrN9xUHQDJBCqLpaxBQR/Zmg2hqFGv+OktWAmNk8lcBAgJenFYloB8GZiEb6vcVv2N5oydrPqWHXQ/xWkTeTOk1YuEryBeRfTDksN1JC9qyoQUcDMwdhJC/Ec8CfNqWO/j+iM3/OUCwQb2+xKCtpQQQwPJHv8TJw0OpXWl9fhawV+MLAYG8IM6oXqkvXiEJH2VUGPFrj5zI64gr66zXkWUTgOAxdwGbZH6GrAT5q/cECKytoyWGSv+0OCFA4ILgFe4BCIQpGb07AMLRLWLUZAoQqN/NO+jMARF5BEDg8tXgoeJMvDKaVmb9JwAhUy5t5rp89jsCCVnbRqmdjmvQwSO3loUm4fmbDCAAVsxyIivDLmKSDpfdL8CGf2cMRulNGsvs7TZm4Yjr+wACbaAclD8KILS2/SUGNRaUQXD3R2T289HvKwBB8vg8gGDb8QGC/W4DHWMdVCTMe0eAMMXTd3K+1rLFJ74JTRAzHdIZBPYbGawgZ3zuwfBHpwxMnzUwmO30ck6wQlcu8xgivNSg0fYGDOeigvPRB5Em9O8ZmEF335nApdeYUfON3g51nt5pYUQBXL+rBH8vQ4Cea8ReAROZAmqZoPIkg8gY7DzAO2MvW8iAQ9ZmxO/JOw0AkGyvgwTqxXYRu1/Wam2fubmso2ps2WHdo7BOHUswpELJNYAQmPs+YUEAYbePlhg2Vpd9pQ2GXhaBphlD20bd+h4Eqw+7vTG2p5sW9bieWJsfuiOd921e3w0TeYc8rOWx5GX6V2QVe7kBc6HHLJKbs0mRVMGreiWDwAECh7lAXJeC/eQ1l/7ulDyrxKcAPUUYZhBMO+py8xEesQDDY4i6mpM5uAcgCK4eCBAoTgnekBl/BoAQ6XgGEAJvfdlLeYobAYRI2bWNIhCBdLRqQB69CujR7Z60GdhVWfanwIddDrTwudyX0I9JOgBBa4v1K+N0Azph4fog5vsfDRAavwgkaItpxymjRbhwiYHuXZhj9np7NQAhszI+ivfB9WLt4FZcrVGPBQgAXJHcgM5nAIGAXSWK3wkQTtYNT3DLQbDPwZbvNjRA6BoZ3ffPSBm/DRhx/dAsiyZOqw4CBtNkPEVFmQPypwjQdE+gxaNn9gWvq2UhAAKXi1yTGxgKCSEzWPReZwxQv3Q9namg95Hby3gryCsCj/AdUqQsQCOAQLxpetlv1CePp6wsyY/zZ2ntJ/t+Akm54t52DQlTrwIEeT/wBgTDyDBAGDzwbxicAIRBGfAbAgQy+nmKYYpBZxO0dPgMXq5ED0cxmvTvQUBWoz8KxS8BsJbE7qSZXZ7TF+B4xyM0/ahZYMGO9ZWQ0bX5pUaRBId2VP9R8Cd9egU7CioAodwePsVQzSCgTWSR8XUVrfIWL0MQlUcDhNR5z4bhxI4zU/iwUCiKXxEggKGvTh5F1QpA0LrJ63hAIAMZZ8YcK/pJkDoBCB5dUrZKYOdl7uWTpKBdedUPVBQkA0vSlaDAJMfKAqbx5A6A0AjQHgdwxbKXQdjSUzylAGHwyz3u+hseyRhffVzfbVDK277HkAGEViWC1p2j2Y1xMZX9tzeOj3cWINTDR1iS3+TkFbwbEGjCjwMIDaaN8bQSJ7lWLCeT5u3nX/8do0NGmwGERhbMBuFlL0hlqs6BgiQo74GuU6mgkwzRkQsDDILhMLzMsttK/PERRxNZYIK3L+rApoQj/Kd6t0SL9gQkAdH4UbTMAnjJtNK814ONgr0X9DmSTOS02iW3FAGR407MCp6CesnkKPjZQOaj6qsAYQZGt7t+f4D7Z4+abCt+oGrQOUgIjE2+Wj5hPzajYz4pnWQQ1hFIJM/4U8+jxjlAuNG3GGY3XqZ5Yk3bn4XGSwP7QiZ+7RHag+BtMeZC1h+QEjz1rUyjv08HCL0RR8cuAQQ1SRSaJf2Jr9k8/kq95sccPYCg9fxC7n57QgkQNMqPnGCHxKoAMlKYeEq8K/HxDgABchI4pYcDBEfmjwQI5JN6U6cAIQAJWkzuoiNrsxu+h+48tXgEQOB6mAEFBBBOefb6UgEIKPATvSwgGwWdFVEw9spq3nmbUcCO+Nb8N3lWg/oJSDiVOwjY7DSDdPeMDwYQOgV3D8LgR554sHJC7bhtK5O0exBmmwog8A2WVkobIPRRMequb2wcIR0t0lWmmfpCpH3JVbL3K4kcR68vAYCshbqf8LUaZebnmLI8zgAIeXsPBAhZ57P3yOFkSSdEkxwHAQTlSCKZVH1J2JX3BAjEiEKeVYAQXZzEfTICB+19mkEIAAKPOX1C6A3MowCCDuxIdqRv3v4Cjs4jevs+860qVP4eJYsDLH4br9dv/ridGPTmaHwFJFQCPwi0MBOnAXEFJNwjb+p2lK1Q9D8cIAxZfhRAGIBH56J4BmHIlNLckXaQtZlRZ/Tb0gbbBsr09BHjHjj6DwcIXrbBj5ncA1UX7LknPJWoWmLIAEDlvWYhRziYaqMTpWsqvHBdy0WzhX8CEA4U0LUkHrSmo9UbDtfvKRcv4PfqernABvnV15V5jmbpuo+z7D+w53LHVnAEMxs3Pu7eTB/plC77x2xIB/UtawQB9j1kGQo91WukU56e7efjryiII6VCQZeXi3jJeaLw4NstvcltztKqtp/pkX4fAxF9TTP/zdPf/It8fa7L1KBfWNR/2z7oOxN0GTRvls80iNn90xmE/WYseyxoNIEP0vu3tpqtmuB9azKgjXG8WP8YVDAUvvXx71psAmiO0dhudEr30mRqcRco8GyeSyTzo9y2uZ+OaOBOVQECjy6ZFzCeXi4xZNL9wu/FOXvcjyOAgP2AJFw+zqgBwiTDQcDTAYIGEUEAJC2rZAxOY4WQYAYQOI+6LBkfojGeYYBgwVSsLVWbOAl83IlEgc0DDlQnajMDLNn7yABO3RCXYRzIrbRrIGQEuM0z1fK1fKy068AkAQK7jVUsI1QAgpQfCoDy2fsDBC7r9j0HDBDk1yNNgOGubP4d5ZQ9lyKzDFWbA+WeAhAifiINO51kyHaqAKHV8hb6M+u5/elvxiZFYvV11ughaz6kZ1oMbdNL++e9vz6MlW0uRF2XdX4HknCBgefnNCzW/s29wIisRQWtky8zioDrBFDdVzbCi3VzCo6DFLQBFUyMljUXFF3w1H5EdTxgQJ1v6q7rI0Cwy9hvnFkgQCGELiGJjEerAFKJZVMzMOE6WSDmoYzmUAgYwEGfAvP2H0R1hKIxDa/U0eAhkiQK1Scgwac9AjzSs73NLgYIvB8g6C9zHu/sMcddx2YQIoCQ6YRU/yyDQFcXkz/HfnksISzvOVngAXsABHTM0R8D8ip8RHlgW+vjiQvpAIE3420sXGrLCKLj7EIIvPGK1VvfMcgJBtPwh89xxNW4D8n2FuiyKKpmlrYAAnX5cwGExlW2h4E7P42p2O9HAoRoDAXcUgVpg55ZPkCKNYfXvfOAK6kGHLrdXbYGEJwOotjQ+TsFCJ6BUbseQNDPOZ8EGjRQGGV8gLB5p/ki3QMZuQqiKNLPAENtpzuDiHEjWTAgMGWds3RInI42+8ppgSYlgxr9y76W6HW7SHcqZVJ/Wjz1wOnE4GFrIS43ntI760pFWMkuShKnGFYUW8w2WluXMp14PkDonpcde+Sy4jo/PGwOEPToGq99ChA4QQQWjjIFBf9l1DOrk72vneLXzSKA4FkO11wUGSsWZwBCpRI1vGZIsSetkARlHpRFCJcWPMYpODNDrvaRA4QFeTU9okubMJGIdB0EGBTypb0HitdR6iavPSYDWmWdQJ/5KgQQSrJCBuQBAw0Sebnxbl89Sr3V/Rm/OWt7847mJQOlyN3p9UQsBJ2mHQBilx2ceAHVIrT9JAIIRDMbGAQQbDDbvaegyd1WBhB0/07dA89u2aAtqVUBAuZpBML23wjfvN99Ns6vOikAhN6KCGZ2PH3+QV+m2DfJtgfC051Yzn3D4dub2Gesr14m3dQAoVH2QEKmGcN2x7/o5kWTQeCjwXbhUfe9bMnOQuQBfDdRKVspU9VOO1aaehvl42UDBppebvHeEeLgLoAwws4zlhhOnUZQfmlEFuk4DSegCxKO8+EB1wUI5HQ+ECAMb8X83j0AQalrFoeWqLXa1wDCyzKNzfM+7lMHCFTbpvpOAUJdX29glq7DsoQxkcPnrloLvZINQAMVHYfUYCELcFwuJ2UzeVYzIppOpJgWbGyAABz2vHF1m3ty1TJregfxikyojMP7zR7jbx+FGv/KhjhOJPSMwa7DNy224B0BBA8knACEbNT1VzaXNvJt+nOp55cHCG83CRDWJVzBqHOA0AFZrh8CIFDA16qF0MtCGDwJl7eX6cD97z0tWpTxpSSyYQYQVp+SzrHXI/Dc9t4MUxUBAyVlsSmRjQy8KInoUUOa1gQk/XXUDgMJLp6aoGJdSQ2CaSgqDxRw3qiMpu3vM9hrzbIMsTIyDC30ciCUZamyWcE1hR9Uac5laXTQPZ07OWWpnyho6D3euow3oBWQEAWySpDTwML7fWL+V0AC55X/3aTsBeJXZwWN0gf7JAO+annQzfYg+AE9AQg8v7HUtXYs1rswKR6Fxg8DEWbhR+rDBuF+4EKb7ZzpyoA9SuUaGKB9FiTrDRC4Db+xusi2ZdnS0mlledURqPbWkTcxMXgChHXnBDuaK/hmN1a+KYDQNhkSCNY9X7zRJkXeB24uHAggsxamdc1fnniFvGwKELb40mMzwha+EkBQQGDtfbgXIDDgNNweHo+nAwQOAnjGoLGDAcLeVxC5Ht2dDCDk6ui5xW03NtA1s5VXTHhBWAa8/Us68Tj4ZAGocZKBgOy9JycvYFfk6pXJgEPW3x6CGHH191KJDRA4J/aY40cDBN2fze1zAIJsr2ptaNS8ugggaOCAAYIFF1KLvMnLSeiu6+5dAKHvEdn5yHZr5paB7MdtCoN/Wbd7SXoOWF43WXoAQYMBBBooRGjx9RkQQHl6EOuiVCU1+BcW6g8mic0HBrOuWZ8HRmaaUcGzv98tih6YS5BYWTdzgGRAbWI03MesWVOH116w4zy+xLHA8BYtkWTBltrlfNHfKFOgg78GBuM3fV/OnkRAywaaBo3zI4DBtqAUiE7OSfh8n0JTI7nkwHUxAghUblDAQIUDCc9uqvsSroCEK3UqXiMCCXmbcrx8sLCkylK1I5PFV+Q3QOgjYtK6GUhKAA1U1doSw7MBQrM4HQRp9FDuzi61zSXsWWmtJAhf9rZO2+G54bRxcpWuHyQ74frFhYveo2cV/Rw96b6Zz/CDqtx77ZMmt7VMsDndsIoDAk1ae0PuCYQEMoAgYi/oAHI9Xx8g8OBOWq4cy6cCCIrfPk7DVeUAgeq2DiUAYXg4FWxAHajoHjqPAIIGClHmgADCDvqS0ypAqBj4WZkUkBqAsOnPeQFr0DNltB+Byuox40EnC1DNHZHTiQAF4ssH67qHsUQrdDwKOsBGtEjaHoiQsoK+r6ufDxBikIB4+/oAgcIot3R9iiEaf12Wp8q791rB36eyy5yC/9PyFd/AAELnf/quIPvt7YqifQSSy2GvJwDB4/r2p7/5+6mB9xihJO+Bhu5CIhtAcQ5xzmmQZBRhjf0GGaePyB84dBc7q47WTvrNffp8tmgipQP1VkDmQkD0p+DEpsjVWIcK3ajCIVZZBtE/T0Vm4MjoTsBitaQ94apPPNP/5W2Ie1sOAhW6rjapXcf+FTkB6hzWqIo70GWi42xjVXALdLoONXTZRkIOK1CA8UABCvLcbiIw4QWyil95VBk0GpmscJ0xBtuGyH+IzW99BujVp+ejb/KiUdnfnTHy5OCNi7fKV9uDgHV31I1HhPgZFolPMIxcHud8eotO3wR9wAyXPvEzrJoC6qykh0nQwrZNQZkXLaxOXzF3U0cDHCqAeNKV222dIywg6SxKQjEsUBjjZv2Mzfg8DSB4kjSXKlV8QzQsBYAwFD5oyPNtlTrkIfRlR8KXzmBVUWT9MaNOBwVEva+qfwKNWYwMg9cAAgcVSH6VJQYduLNA3rpAwV1mEOoAgbsibjTjb3t5TgQQbP3MfW51xToXAwSrqxw0jLCl6eoAwgECccPLcD3R4YDfn43qCpcKLBPxhgw4M/zsvebb9TjOi4i+BBV8vCRAmJHfhgBzp8F9AKE14CybOABFslSRJdWoAIQtex8g4IUtskwOKtAmRfJ62mWO37LTYr+O6eqvBRCaj2892gDBs4Pdbw8g6OPVrcba9Eh5w2dlEL4EQEh9WQFUGIAAZuq05yADCPpY5Bp7ABAMqPEBQh+LSxmEDCBMc3fFhIANPdPLB9zwdRmaNyCwkQEQ6SD87y9wjeUDpemTs+Z0Iwds3+UAQVpP24pEdTBAIEWRSiFbdlGwmi8+GiB4DqwStB5RxtuP8EyAQCBvy7wGECLQ89kAwuC1fYtBw1PP99Nzmr2SdHSmgcppmL9hrbTpfQn04Elu8ygCBH6nRdiBqt37RO7JILRg3+UVX4spGtcAgftAlEUQ8t8AoYrIs+Gf+G5uBqFdvSTWlUGo2H7e1CjRIdUguF17oQFjcxVAwMXH1kyim7vWpkQ9c5u0EOoVz5hSwg2Us+c6g8BpmL0DynC6lau0vKmD+PVWx7RhevsJkDuQAEFnDvZBVTqboF3JVhx1WlhpFHYe+CO2vGpTHLRtCCmsr1NV10p7lcmYB9LfdEcvPADAoQXxh5Axr4949sIAoqXl4MmgYKOls/z1YC85i/ja784zCDwLNP3S+pATHwPts9D4CCO2CgZVONpYmjnVagZh0HmZc87s7AhvlSyHdHhtPlRQVVv13thofcvQTgIH7dcoo9f3VxofDL1+hOdzxNUpLEJ+LhsL//1w9RX7sTTaBu6+s2h2kNMyC7MSIHgMnTHS2xUAYdDtXxZDs+SLHUXcrkFdsThQ3fcCCF0ehJO5osy/jwBClyTQjY6S5MVHXda0DDDfC6Fx4PFIgIC8VhUgtLrx0gIBhBH8dVvy90bLEU/XDTWuGTkRFLhxAD+7XMkG7PHEBxBypdgrRzQ88MAlEfmLCqC41w/poHrCzww0TGYbmKk9Bz0OYdp6SXN86VGXHQ7IBqIIFCgaHw4Q9li9ht913OW8KUVmhf7GRtr0x/V8AgTlYre4rODMmLGroQaZq5xnPTt/f89+CVrS4UkIoncRIHDB550ZocgOgA8QzuiHHBgYCACCuNMzQejLZ/P+bIS6/S5yFATRuBtgAMHzWyYbwej0Onw5gWjPK9VWTGJDrfc1LAGyPr1W9hMoazMGg7wVPdP7CogJHuRlWbvngN7z/8tn/v4CrvokpGcbfAwQtB57Sw/Dnngwsdek7n0JXgD2AAnn8SSwRpv/sgnFs0ECDsTYb1he+0xUgCoGjrQb4PubgpvpJEDIfM4BQECuBX5TI/fbPNRnI8itV2pCnkvw9hx4IRhRHJYrfdbm2ftIFxTW6ra/T+3ZfuJkbEbZCCBkt0gigMCiktB8tknxnEmvhlxv26UkQIgHq86NUuVjgEDGz/8PWg8/muSN2DdA2POjzwQQ6tr12JLxjnru4Ha79AkpZkc/2lxNKvqOW36QH28QaKE6EUBAIcNLZVfDC/UpK3/lfaUOBnAYIEzZiS8Dau1AWYJRZvhEklcGkA4BgvbudwMEtKkbyzMK9t7GyrjOPlRL3ToHCNEdiDDlMi3D05lfCyAsdXFEwXPNt7/4m//apVK7zKXmLocN3djdPEPwjwQIEsizgTW2h4yRAvd8p5G/qKLKLhHw4K/BBb1TI1D6MqOW8VxO0DxBXZ4PeyrWALgAACAASURBVDteBkFrxcxGoA89uT6WGwzRa4XRc51B8DMK3nXJ29wtrVrGINNbIJNVJQo0WRBC7dbWh+Xmob1boXGq9yQQ1Narx6NXtj0LRK4CBEw/ljaSWUWOV8pkYxcF4qBv5C+E2xmX3uxYTTmIAULsVcu27b0mjN5Nem/BDF2oMS9XkR0eNZG54pFjQk0c7PMsQqQjoxt0LTqGCX3BdvosP+STZRCNJgdUGqSFnCx45knse92eHYvbWo6vj5N3m+Q5f3GNpwIE6B7vWTxhBD2lMEc6ovbo3VcECFzndTD7EICgjZFG6CpAGKFw/NM0uBv2gvsJ6o8AQmRAw/lf/9ccKa6PAMLuNR/8XX8DBB6odLBBUwHqBwqYCDzoHlcDgierigyzYA4NYj6MQAmNPRoLr1+WF7N+veYPHkBorEnZPhYgNPpexqKusXJpS9Zr3L8fQJBtD4AgvQPuVQwfIgoVrcwlGbU/WvjUAOHn/zYyCPzLXUN1kXj4bFEHBOaU+p/Y6Y5NiveL3uAyDQR6E047Bn7Ncqs4GFSq412FDP0TeQkirIKW2Bug2uSbOXnmIazD1bXdcEjt8mCrVTrIILgi1JkCHchRUNdBftCQmwg5Hc6zlBs+meCBCBtWtwT0zKHiTLj8osCTuw45u/eBAn1SBVP0MgTT+RgbkOVHqQggcMWO7LYCEh4FEALbXv2pjBO3D+SX/ADbSo8J9ZRzVx3bP8r9oI81bW1jsoMquOm+lTMIjZ/7AQJcJvBclVDQij5ENhL5rJmrhOqU2fSJjY+yj8uuo7avxcI1p6Vv5ylRXqNqx+NGAEGDhHOAwNxuMHD7FEPFgcKouyoKVYAAwXEk7wYQZqAU7UWbB1mP9MVLvSu0OZH3nNfhMq0CBIoPziZFOJa/IkDgoCbWu1hzTxxjK0uybIK2dUcgatYoB0JCdR7cZMmxeZHXlXTkUUv+7p79BScy0DZadW1+n8b4aDrV30gGKPAjgGDbPQYIpFwmlkwo92UAwol/Py/brSYFCIjuCUAYPuFxAAH5mPO+dyoc2wZ5yGvUWSy/BhBodNDMsTG/R87cnHiBY35zHNeJ5SR5MDVKwx6EWz/ZEcFVRQdfpJGUJUAdmx9KEq944NYKgwACXYE82+7/c5Rc3JGgQYQD+2k5IjvpwI9MCojGkb7OAHBe5SZFu9+AlyWaXuYAtaM9azaTaILUJxtoxjBoyV8niquDsleXAmlPmAZHEccsZm+eI3ooSO5nBC5kwESB0rsrIaYfS6QqA9fTJ5lGZItVEBABCE0jnoXrkyd4B3k8tkOOAFQJkyWAEMh1lY83w55oco23qWFVbHfOgKmhM94spA1pTlm0Lx7if/q5x7y+t1SX035G+yGta6cAJeY+Fvn9A3KYQfCCk+w0X9L3AUKdeXu1rBSa2HfgAYSTvQ9w9o6cMlMG2J13BghdF+mOhEcBhNnH3j+9rk+BXANFBBo+EiBovaXBwsaKQKg100x/KwGyMtOegUFNlyxYIA43zVEGAwJlQbOU5lkDBAQYTr19pc8eaIhkTu+yMlG5aMxwRqUGELiM/H0nMUjgAMGRTwgQPJlWxy8ft8wiqi3l5W5mSVzXWSfZ37yr0uqBOuwXv1xunVJpfpj5Sv4871y5ROvBBwIET6G48x99QVdbjqDtu7FRE3cPz/3ewq9TmY3FgnTFWTtHFc2eAzV+/b0aKm/U2vM2xVjvgZL2MmoySTys5zobwIEKrww26i3/yGisPnoXMDH6Y8Tng3OAYG9FjPYi0Dtqn/qjAYnmCdnY7i+FXMpiILign2FIkbnELGhV9FK24d2VsHusAYK2M9SmziB4fEeAoerXKn2OglkGACp1PRpR8Ca+bd3u5dw7EHT5ExDCk4WIzpa5TIMPHdj6nQf3fPRyGstGpqmdzMny9rmNz6OQgSpwaKy9SK2t3d7aZwIyt4uF5kNdgFDVeZ8zlKfIAUJkCzUpBBmEiICfMaDgcb7XYI+2h+3g5yv3CEmGDUDgrx3NgvsYiBuvjgIIqf9SM/soOhnfjgIjBxMarOhNkUwGYuMjp6uzHpymlymg5+iYo84cyCA/bhYf/7xjjvY2RHRCwZENo67FiUYW6R4fUk83fSyfOQdPYXCQzgHCbm/A88Yxmv0i4FENZhHwiQyABgOVSQ2HK6/jnDSA8XyYx38GEIIg6c4S0fhHAEXxvBTudwIIXuhTcce/yHLuHSC/IsFFLTRWAQJ34MpTZJNLzUh00VZB4+v90iV923s4QFh3kF2Cj4PRxwME7ZhOAAJxFAGEgu9a0emrAATFp9ApnUFAM3sNGsbvOIOAAIgPHLj5b/Y87dEZhF2bQ1NvOSsHCVmAqwROLmS89m03TCG6o+7zAAIp82mgj1xYBKTi4LipngIEDRkzgBDw+KkAwuDza2YQ0FyZRtjadtuLsEM0h/y6rA/tfa0cdUoZhFlS0NLftskieAcI2E+4MTGjWX7vtKs3KcZuTCE4sQGkLQFkayKcW9uSAFB9w74XlFGvZ1m3A4FxryOMTBE7iAXE1iM0/5z13Q8qAfjDZchJQt/LAqg4wkjtavrqZIKgOWnREomhV5mlNxrtvxwg6OyA/J4C8a1nCJqutweC6wMZtdQRTXk7lfYXwYLG5U63a6PcdbhTinVaBq8TkMBnq7aeBAr6/a478gcUMDSvNqDKDEUGeoheNTBn3upekFDlwyvXnntZAs4bqy+clicv3S+vXHTcUdeRvy1wfGUAgcZfavTZ7nw/e6I5663o2+DV0Hu2ZaeHnDoGCK2n24N0xw0ULQMMfjshQBD+W8noFCD0TmA5B9EmM6qD91ZuJoMQu7AIIIyAXneBgBn1yMRncIOZdMDRro3A+SCAgBDhgJPzXzJka7OgHh+NkCnIsnIeq2KvAA9XHkBoz9upCf5e8f+bAIQNnRAWl7KMXBLtqonciW+R+TrurhsFKnQ2m3OkAcJQ3HjDYqvfSkS79guBzXS+7hFG1cBO06OL3ECr7ULjmEAB0SD+5juTFo7ajU9ECHBi1DQGCEgjaLx3gJODc+KtfeBkw3ElmPkAYVtqJbK1DAIBBMo11nIFUSnZgzJAqDB8RxkIfZ60AZJGdd2kSHzbjywNx8H/bZsYz+V+Ax0AR01+9FElHvK0w/LfnsFGwAA4WvfOhGD0Mn8TZg22dPEFUkxmr41fZ3OhASfz1ILQZ634L8C26egkAwuif2imzg2X2mj/b2XpN5/xE6qX72zmwPbVfqRJl/GzG5v+DhajayOHgQI7gFosbWnrcMdKNKXUPWXxgpGnd/lxNX9PAm1Uo+HPAAKFZx6gue1HvD+qv9xOMpq8LJcfr5cZrddeq+fJXgGYSwCBAxnOu2pTKFUOEKxEJD0blKvy6V7edY6aShz8ZzxQ1CSNJMR7H7ObniiuXQEGnj5ZEby5xyjvQAJOVenmo2yFvPb7jBM1EvQthq1cQIBKCLqEDxA2axwgCIYZPy6i/QYIamLFRqDvnp0S7XJ6T4BA4OCzAgRr6FvdCMBg0OC5iA0yCHacLDecAgQveOxeZEsNjV/akYD3V0hHMyhzPqMgkvXnSrAOAuZ6FQXLKrDQblPzikACgQNW9jJAQAAHBOFlzt8AYQ+/9nH7d/vrsQAhDq+XttqdRexVmvdrf/iLfD+YNF3KLhiA8H+LJ8i86K5oeaeBZ4h4eDRA2IINHBBmRorXHSFVeZVTGyX0tLIOHiUf4hPSkfNh8ukCRfJyLlNaXVIAQTSn6LV1MCGKmT1Q1zBvTrSJ8d/yRMJu9o/5JzqRIMHDWOVv/6gOUWlvqCwCHAj87Gcyc2CDNheBwFNMdqQK6L0wTnWJEslOjmYlUEXBlxiLswgVgGCDvlZyG3ziOshIUF+yoFbxlHkWxaYgK7xENkogCQCCDrfuBQjeuEd7EDhw03/L8SDqeomBzGuv1Fb0L9LDyvhpAM4D2e7v5nnYtAxK0qdxL6O1g3uRmDvtdz1f/HkAguHEO1bJC94JEm5/8TdXAUJNOXap8UUz+ncZIHQCLYUyKR0DBLQc4RjKif10X+JhVxSe+trMgwACN69rAGGPzKMBAr4giR9vHG0/ByAQhDgBCFGdpb9K/fmFrGMEKspT2ZMQlWnwgLdjAzLfdLm1DQVu+WzQrYAcTyI8yMoAduo58DHNjOY94IT3vf2tN4xygKDHJxr3e/YgaDn77ew181Fm6QhzDf3bECUdpXYruopHVtoeWh60JwUEb8qvcoBgW4zzB9LPnWuirvGeGYS7uT0CC2PUbn8igCB2Y45ZNs3o9hJCVfh4zwEGCMDBGN0/MXZV1mxALDjvzLe7fhOhUj2stwkM6DmQqbfGttpNMgivZEIcOLD2xAZKPWsngMCf6xk90ZKZA//DS608zj7Ie868dvTdCdzMtyzQsFBWgI8C/0Q02k9QARU2ozAo8fZqQCEKxJlzzoO6/jQ08UehQ/JowQaVs87pqk1W+otcYRSI0chXn3lul+oTvzy4RwAh8y8RSKDFoD1v8LX7HCD07N10wvYDtpnT8wBfJWzpSUelzi7jrfO/JIsJg4K21MDvumx5NPBBt7PePb/0bQKDyggzqQcAYZayAKHeGXfPwSSBkdfswjdAUIKeCvpIgLD82NcGCPyWBOSaEUDQdfwQIRXRBn9e0wKE7Z4y0zyZnfmBEm1Y3K6tHXYcCzE8RPsfcxpw5xpAiIIzD7x1fzJKen2/FwwQHxYg7SwKLS0ogBPefxD1Ty1VsP51LubAPRogdBu5yWzusJtMRytj5enxcwACv1XF564+qb1Cwz2KXxHXO5W5DyD89X8TmiHFOX7ZWxFlqTG/myrWjjq2fXNK38JUDH85vouqROfNVoBSo4zB8uyOEfDHOKJoYOUPLWoi9f+qv6L/6vpj7j0WF7x+y1CooC/8Hhkrr6NvQGzv7ImE3Wkvc6DpME+n9hzYkwrIiXiZg807DZfF+OPJeK8HRZ5ooLpUav+2AEGDENnuDsAkK9/BS3AxfnlOuikQycIPkrL2+LXVeQQkrt4bAnj2tQOn5Syq4/WDP0+NAtjYCUCI5KlJVwENb3/+7V5uU3EEVAbLgu8/ru2z2OMV6dPzAAKXK+/TVYAwrIdcOn0Ii2cU0Bko6aw9gJDFGN4XH2R8BYAgtL28zDD9x58eBhDidMsW5Aly0Arv/Wbukz6HauwzQMgn4DkrW/ELEF4wJTwGCDwQBwBhgQttsF8fIHAJDPHmM4cIFyJgYUEIaknCEclFFjgz5WrtVTII204k3m0nxjVcam1G7Y73uIRAnkyrK/34B2gF8cNTgFAFCRWAQLSIBwII9DwDWdHYBWBpKVCF/mcCCBeG11S5FyBEPOT+odKDLwcQumusgHMFENasCdjKfiSFGlwdvWRrgIHIFmjflDlQPdfbQ0hLGoN85vRmvYof01rSG+DB3BSY/haVoQaRcs5nhr6+s8ALfuwrjusGL6KpL3jiAIF44f9vf6MMApUZ7+IsgCxLMstPKiiws+a9+7mH/UcwHG+1pnjBnUbPKx/tUeDhZ9e/N4ugnbzWr3xTHF9quB8g2MC2zcYDCFFgpjpFGxXdP92HgPhANoiCr/cM8c/PnWtN0jJCMrsCEGzf8P4C6+RQBmGJeTr199t8F1kmAQQvmPMdTJ5vfQwQGPJhVr7iTAVG6DKZN7pC86TO0Fc/mm7dulEGgQr7n2e2gakGEJTyx2sNTi/14CMUM599NEBYSxxIMd8BIHRwoIK+GAICBxoYoGuN4zLxhUbUjkwC2o+vcn5p+GWdrcoy+OtQGgEE0l4PE8aAYqJphrMiQCGDMoeTGSKNAi719iMAggzmNYDggYRnAYSsPQS8PBeJwAt/pvtQBQjEI69vAZhwgsuNIN3hI7FPdkm//FUBwvaf/mVE3qecuQQfDxDcbHg5Rn80QOg3F3K4AzifPk8vMcTIUQr78wKEaObAZJH5azTg7i2MUzYlgGDB1gojMEMBbj40vNH9BhSYWRv91ELrrAYHrQwCBvo5Bgre1xclQPEAAtHUq4ic/9HJDCBwUfCbQL1AjYY9ciP8qtoIqo72bAZhj0RV4VCA4gEuBhJ+BqHxxnbKT8AjT53HgWiMhw5wKPhmAdujEXnZHBzla/W6f1pLdBBHcuc05mbD5Qw16EBjpZ8F4x0ChC3jPiZMibFvHu1+3gyCHvvRIT8mfTRAKCMCVbDqB67S9+rJdvfHvNDNixMg/MXcg1DJHIhjinAjou04dz79bSGDgPEVBTjgeBrN1bR2PCpwX5X5Cvze4M7ABgGCE5JcPVEbE/uXT7hUVDhb31PQgZz6zi9e0iBBAwR7gZEHInyAQCHRgpVdR7fDQdN0DGu5gM0m1PhtJZcvKvMGLn4eJrSLJ+Wyz/FSBgcUXFupV74KxoF/1+OBEswQpzHY/QaN3717nsJSfIfDLrVDpcen5iUCG48ACFy6njGdtBPJnwdxABC6+nIfhZYNIoDjLDMIRfb5iwECAYOtQebiutnO6ML48N5z/2UWynzH5GX2grEVAYSMftS7uO5j9h08XcC2g2rvwbgAcVq/cyPo7SpAQOJFgtPXu8bCnaglxVtKuCFAmIHnXo1PAQK1M5k3H5wA6Pg9AEJv49cBCBYe2m8scKgRuQEPIFD9/d7qJb3ToGEDDbzGJ11PFFAzB0IBhXNCLpT4tfkMfaxR1hjSkmUsH3bLoheE3wMgkEa8J0DgWrgB1xTeVLlTgNCqgTomVmFZnwMEaRm0f4FwzmOOPV4Pwjvbudf10Ajja5eqHsDj7z0AQtUzPRCmgc2JDSR0uXoA4edfyWOOO9Wd7wM3wV4H4e4tM0e3BRCduu6lVppj0uSIHab+6213+hVevTLQFzqK1mn4qi2yBWP01K58Rbcfa2RZhtuk3f2NnsXrDALR0jN6sJdh8lxbWpDZjCubE/c5fApcpCsSdmIp86exHrS3KNBrMGJn2vZKZwtgLFDA30TgjqBx5PGcp9ntksimNfpggQkHQ/irj5o/zuE9AMFKzLpEbxNfBLCICi+TgQhUhz9DtNqz1x8/6Azekq3Hc5T9iQBC3FcEENCmRZq32CUISf95AMELvsofFlz39qIn2YKgLDqfD+LzYzIIWeAvCCAjgd7D65m9jzu9/bg9FSCMqFvuxjFAEJRVO6bZAh8PBgiNHL+1b7F7CSBwVHwKEJrxURj8WgDBBmkuh0i16k6D5tkVRY2XDzYFrm1Wr+03U+tBsQ4QJM3B0TWAoEdh0OKgYrR1ErArZakHVYBQ4QEieSX+CEggMNQAggYX0VEynf0J+mnoYhATAYQ+7qn7+wYI/lX52pJSYVZcyVFstAQfwEPhuOPt51/JbzHc1hE5wJIJoOR0pnuoBNgdJVkDev42X1HGYH1dRM8KgZAeCQwq/XEmT/S4AwRIhyPmXXr4Wb0HAWzk61WmPPrfbRmBfvPZOwIEPKugMwf0W9PgYIeuxhplbEZh8+ZnDmj4bSbF25QoZOqaYB0YUEAj6KRGQYS7raFS53VI0q3rUEps17IIKOC1Zyj4WFuINxPy8vruhgp9XscxgvBbDicAod5nH6REDtXjXytZK3cPQNB1528NAri/WCaOeTT6Nm9J3CucU1/TeOIUUMii4hKxaWpOnQxqyifze7MhOwkji0bjp/jgfrQc1jeTcAJYvpmy1FnF1ZU6TseuAQQaAOtobWpFOsuz1IvuaGtPPdMAgYIn7O90akZ+BYG6ywaVupMZt+iTAMIMzfvKhwggoIuQvKWFzw8QJCjRynA/QCALwBrKncNum5e1IMEqxyhzT9CKZqiDbh0gyKuQ8KkGy6ulfxL080yINfNKHY+He2RNnHgAgV8+Q+1EIEsFewUQVpaKxTl/LNFS8LjNlmvnaQZh1f0CAAHmadGH85AQvgFCCItWBsHKbs8yPWBQWbPXc37JTTt9QCcQAEAwrAOjc+2+EtyVoVZ8iAGlUWiIwB8KZO0WRKpD72dw59kBIVTae6BPOvDTCfmlRy9zf0G7a2/82/8fKJnpg7sXYfOeZw5kOxJqStnsXyN0ESdyuE6AgXSezA+vkL0zBrssyiIQD1F5CtaYQ0/plG5CM+YBS/ZJAgQERnRdAhVrXzPTAs7j/vs+gKD7Fxnfo5YYMllXQBuWxcjh8/84qFBjs7+3rHL/EQjjvL2tLQ9jGdM4JQgQ7P4DNpaTCAQS7VQDU/CNZwjmSiugbcP4TtErmQPPtrln0L4W1NHH8MLQeN/LvRSpZWTHqtaS9jSZrhaonmQQMMIcrvhRAIF36WX2t9HmLifu1jdAsOtkCCDQBkMFMpbLb8+9+w88gNAqj70M9KlmvLQwwMUjAcKGK4M3FIzzLbW+Zp3sQQCuOOBJc1UJUDqwZEDXBwnSQXt05Ho4gSVeV7ra3d7XAwieU9WyicbJAwhEW4MEQEtsFOMbBDKAsHXjxm48PAUI3YZ6UxYg7HdS0/WEXMRaBavF+Xpjdu8EEHr3rk4aCsE1KVIHCIgQ0j8EEO4ECRWA8Kf/Ve5BsNn2/pHQ3ot9hw9Fd19K1omrDoqLF5RAzJ6DCjBwjLpw70Kc6SWXOfvK6Kk3s0CglIJFVa6/43sPVHA3+wvYKYPuk2hezQM8GSM3Sr2EgIGCDfB0YREP/uiSoyGG/NQCIWsuBwkAtvrjjytRS9fNGetMhNU9vea94FTbcw2AkUPHffCCPy+Nykx7FYp9BhD4/gwOyuQ15tQOd1SRc0MOLVoq4f2s7Ivg9EnK3oZALcPo9w7MclmI9bU3x8EBvYsAQlCG3I3a87AOSzCfXAUIPGYSQPAy8foUw/hU9JZRBBCsLpNvAlpuxBMFdf/devOBoEBq0OhYBJb8d56t8ojjlWFjtHTI8ZAQIEi6tzOAQAxeYU65TX1kUfRBu1jlHGDzTwAICwwwxSzt0nEUeSMseWxxsX4vQNBHE1EGwdtjwIEFgQA9dxyGHmUOaBgfBRA4CECB+57Mgd4DgLRbBvjNjQ76MohKg8zLRvaUBdD3AQi7f7w9DhC8IMqf3wMQ/H5iaX8DhC0X+3nnMRJwfaJnFxBAcMIMK+sF8HcCCF0dPy5r8HyAUAGxDwYIP/8XmUHAcfoKINDqNGlQkAwDLXeKykUvVhKeEP0suIsArkCKc4LDV0hvcyILxL0Jkgs3Iva3uSURZAtE9oDP6tHeA738IDMPe78BGZue4Ws+pVFaYMCBBy87nsurkekZhwWyjHUB9zoEFL5jI6MWeXgkLeXcaEATp+0de0mPCV8BCFy36e/dm9GX8RvNTmUWQWdItF1Wfuf+ZUinmkXgQET2Dwe5jEcP/OgAy8cCZS5YO2vPggZQ8vfSIeciG3JLepz4xUfdglQXx0R7P9zvyQalXnm79RfQENqiueETLA9mRHaM6ZnbrT1Rek0+8fn990hUbKJSJuiku8TA9MIFCFkwZe0a5YQ8zUbjO51nTWfWVAUHXWu1RRSEuQCCLouCvXb/utMFgCBkoQMvbU6cbto7wtjZ4JkDtJyA7kHQSwtjFOWGRDmyY7GpPcNLC9KJUF1vGeJrAQTuTiOAQEFVwcsu2/cDCNQaAgLUExwU29PHAQRkc6jdgm26AEEGum2FlRMPcXC2bkwGzR5ghYk8CiBMuuwGedpzsHmagI5jDsZwBBD0Ecius4vOIwCCs8/AGyoBLlDwOAQIYTtPRAVc/imwr/CR2UX2PmnjowCCGJ8rgRrOFDjgLQjmSrsuQEAn0lAI4ANyD0Dg+wvYZ5y7YKexrK82ErCIMgfRMUc5w88AQgMH9pofDi5IBlcAwgivWrLj93YSdq5xbxZh8IxQf0aZz7Q5ZPx1AYIFGHKzogdKsmAc2TS988p4QCTjJeNJO9gHAoSu0h6IuQYQpJWMjzKRZvsb+Kd1QYCw+39fBkFETidqPTCD8CkAAupmIW6luAED+7QaxF1an3mhqRd/YksMwkEW+iJnUsiY+PXIB13ogboy+wA0T4HB8VIEV2QeEsgWwTPBJttnIIySB+p2pwHRU8cc+ZFDsbTAMxDRCQVerrUxysqlASojg/XLzB7okcGfTPEAguZNj/TmRLbzDICgx0q22H6N2TR3lORyZXChcry8tg99o+LuURT4MkNEtjLqxKcYQLCbfaU5pPazll8ZuMev6Cph5LmzPRaa5onjzXixDlGPrmxtB+6RPdAAhP/2NkeyMgsgAKfPFWqOZsQbX2rgwMCNC+yF/LqjDNR6N37kxc3EIVPd6Xl8mjhzQOVD8G6cFE2sSkwdBKvzoplM4+WJi3HRY9MsdSm/JgDCwbLCCCqhyo6XpSUFxb3LR8GZPB0g8J4DqaONjaKYuiWxjzcP2u3vZwME3oc6QBjbE1sGQf67FyDIsPERAIHkkQMEW9LCGA92oKvEeTDGNpzp/FWAQK3hY476FIN0ygSdbF10ykH2S2tP1r/uRBIvHDn9yikG6RTx5GRq6UKAVwEC0/ZPAhAi4WbBjNd9b4AQeuLfCiBID5oYCwpawcea/vK/utaF5socEuwDkNrADoABBANyZmJ6JDhWZd3JWDAPNEcXUVnNxXTtb3S1UIx2e+3uy2e5/j8GBHoBdqcBHXlUxxff1u8xnx//vHsPoguSRu0d3HkGg0IZldnhQQIEes/rajnp9UiZQbCS9i4hjpKc0VxCh2vNH3+PAYLWbgmMRx3fVjiQtjPFcBbUKVeCI5iBhjcpchnoID/cfCa1+Lgjsl/PMLP+Ea9RuQpAiJyo7m1l/8IVgDDbYal/7k/3qLBMhbM50Wgxke4uhsvDyia6VdH/mBOIK+sR1mLk2m/zQ3Ljbp124dPwB/Hc1LcS7aEMlyu1QhkERAuBbNRf7suqdSydDHSdZxAi3Q7GLbwHYfq1n0WAIJvZSidRI1PGaubgvQACnVFeO3SYG3RPKOzAiMXcAro+cRHU4QBhBXZOOQAIa88BAQJe7ysBBJktEsa3AQAAIABJREFUeT+AoMM4GtEYIOAaFiBoc92A4hsgWBlWAUIElqoAwXOkvzJAwH32QIJ310EED7yTXF2qamgkQGgfwaSJ1jkA2RYdwOwSQPDa1rqJNl+e6O9oJwPfnxQgkKNDSU9sgLfXC4c5VjBGNB1DN49BObO0QIMeOI8UGKjgzYe3k+VzLRSAlOL2zzLrwM4BBbgVURxzbPW9rAAPvJVPN8cZBNkz4ntkLbaCRycUdF85fxJEyRGSmYL9DjuBPYOIzC4zSawrrZY3whwi85G3gEcfA6zerqh58vQYzWRGWf/+fl7Hghbqt9TVyF55e7yc9zenXHGwXpkIGFAblWyAVzbyIQcZhKW6xK/3/xlAWvS+2dsOZXiZvLEbFf0Q6/vVBV6dGGvurPO+UCsap6BvrWEDAs8mNSNIG3eZffm60/u7L07i+uOdzqjo8OZPj4btcaTXkR/wNcB9kxy3ve0MwmiYHK5kw2GqmiXg3H1ZgAAAgRELsjL2LPpKo95wKI418szC+wGEEWR4+NMAQQd96qsHBhBo0G7PW0rASw8WIHB+Tw3Gar0GCFYLJIQ5BwjCOADDOpjoIt8AIR7lb4Dg76kYkusXIwWTcPv+lnw++pEAAY0uBwiJjd8NEE59SAY27Wh8KEDo7HKwK33g7edf/n1/spBkJI8TQLDayRAPeG82+s0y0UKVIaMeiLrj4yM3ozyVGQkTUAYQOiDQw093EjQ6/ITCDKoLGMz3qz7PCrSyFaDg70GwtyFOo56AgHY4jCUkaZAb+9sTCdPlgCt2MGgAcwyTgpMgBSuolHLg7VJ73xzpuYuc89jsmWdD+7nXk8qMIbIj/W78fnP3L3BQQWVJMLRoeM7TkAivh/mSQ1CdfZ1cksRbOAEIrV6UrVD9qZ5iOMwg7PsV0BhgHrBrrPmzDCBYkyGAwO1MW0vbVwCs211SOLFZByCISJYa+jsUwLok/YjPhp+fz2Lqadf2x7/25uTpqz43QCDo8niAsEWolfxAuO8AENqmxMEhAgh8xs5hHgXu6wCBLlT+SIAgRz92II8DCBNRiyN/SCdi52td4+lFSTtgj79+BYCA+lEFCCjoVwLgKUC4ChI0OGKbPy8DBN5n6utnBQjc/0yNBajF33PwKwIEHEv2JsXMh1RAum6jYhO2jvnGB+WOf/7l302Kc4DaoF5pY/kzrcg08IEjWO2xhrMjl4ZHh2mVOUBoeD1rX5bs7A5jl9cOz1IZKOjVmSzVDFwcaUTLCot+O+FAs24+++bPWmPsUiWTVeAAQoIJ70rkfVsirb/rDMJO9VsaJEmcLRhvuSPgWYtdF8/Eaw5klKqVtduF5ODyOZFG/foqYm9WYCnufQ2by4oj0GV0QNLBt3HI62SB0glAwmAQD9F9C7y818cTgJD1ATnkkzrVvQ6sL+JEApA3N4W1oVnLGsjVgAoNGFlf1Y7D7fIGXbvujwOXfBpNnFAGoWp30ja1m5e27/GA9wJIMdwx8auI564yJzo/wZYJytgWj9hK7kDoI7oBwhzgk2UEA0Q8h9AGyxGK6GcRIHDf6BoSBfTM8TFF4reN9AEBgSYDCP19FSCoGb7Yo/AHW57gIIDoE2+PBwi83zaDgAACcg4aJFhgINv5SIBA/GOAoIe89URfm8zLaK3Z76bDNjuZrwCELOUeAQTUXmYnfh2bCkW0fiWAwMDYZwAIXX2Zlq0/HwUQbNjRVzPvEhk4vwoQOA9+Gz5fJlgdxdLHFv4sACE/Onz7+T//Fw6HWfYgclpAXEopdwkKtICeWyc4GOtlFrKMQ2cI9QlciSzAJwoPnFTbzMDk0cGLVmB11fF6zwAC35TYm+RHFxs9RWM1ygGCBg02KHuZg7dJn65N2tKSgZ7ffYG/vbADPZ7JW+AgJWxPMexe2I2KWvTjd+akarrNISIP8nKWY/fv+O+fBRA0sOlKqIyUOwPem80TzVWsdcfgAZ+W0O17v2tjsXnL6Grun5FBCADC2vY/y3B1XxkEtvyg2TV3JFCBQE7OmUW5B6Aa4jLbGf4tCNFOQ6qG251RDr8u8LawUlb2RO+qsquWexxAoOzQ2jtQioOTz9I9CAIg0MiMOVJ5raHLmuoUkVoEDrqGIEARDGpZMCDgu3kuB1AIDT4BCJRZUHsElvwmuOh3HpBMvf0EZAAaPGhwwQO2vlJ5B1MNEHbPnwsQ0HcdcNAfvDpwbTmVHCDUHQMHCHvIN8dECQEC3sp+/wyAYPtjNws27q8ChBgcDLnoMkjGjwAINAonIOEjAcKMVksBiBcHILjgwA+Z0XGCpwCE6aueBxDmxUneZK4Qg4cYvwFCKqrHAwTtMicLoc91XmYB/WkAQRtbkEFweVTXJXNlhMqpdvsvAECnGJhC92UGDRB4kKa/9f+5OuiLk4g+R/4cYDQnv3MH8obM9wcI2rylBknDx24gcg7XAcKQ8Fl93hf/Y1ARTS9A+7PQKwCBQ0XpWD4bQNBgJxuTb4CQBgpRIAmslwACoOmqPAEENK5Z0B8dqS0z1O34TH6V0s/LIHSpZbGVWCwBhH/6n4Gk1JwITYe4HCoMmYuMCgNUXE7AsKVAX49lpR9DBVWc8ACDDML7WOMEAOLiJArEdP2yPrVAtPSeA2406NTCBgfjL83T+E3z4sFFm6mjjUA0P0eGqp9JYLFFrZ+j+w0Gl3qGzvnUQ2dn8WhenwUTGxo5HzyIRtkDYRoAVFjpncy484Bnjze2Op49eAAgAgbjnb/3ADnJR2QQqpsIeftBOh/68mhvB+sDnO3ry5OmvnkZhGViky68I8YZt+i+ZNUvHTDkSQJNX2mnvlpx/iZPgMNhEMgTYED0bDFncmoYyO5oiHRT+4xKsL9a5hwkiJaKV3CHgAECBDUd+2kAAhiINNamBeySQSUYFwECHqICT/cABBFrHggQ1pXKOtjzwI7AQmPoKwKEHXblcPDNkPzNdj7Ite3AjYxdh/vYuMkScDv7KQYRm7YOpN8AgRvPiZ2+B0BovHkgLAMINH3lfZrfVehdVksM7wYQlGVNBay4YO8GpfcHCNVAfAUgmEBQbezOcneAhPcDCH8rLfTEXiPxXAju4nwougFLfPfgzrHh1UuWMiu0o5CUju+ycmbOneZ8Nz9IspYO1oZEAAL6Oz17b88oo8Bn4Ho2jrMO8LjmbMMGVPzFxtF72dfrmxQ1LZlF4M6Hq+MO+XiGchb+K/ojP1yEYMqW33iL+OVP5fvI2OidLhMtLWiHg/cd1C4z0u3u3+gv23stDZKeT9cfkaojRfLMMy67XVVWbDhU/XE/uDR5WCr68QChpOlL3ZhtBTcoSYDgZAzCWMJ9XJO79HnXw1AVIETZAs+qdT+vcznGpKrXbATdzFHuS0yYAxmELZVB7/bzn74TQKgE4XXM0Ln785MAhL1H4MEAYYEDrogEAlB24L0BguzvfQCB00KbD22mQJq0dUqfDSDsHnoY3G7R3K7gGyC4gTuMeB6g8gAKJwbAhFC6KIOgxutXAAiBnB8LEGxDO+vmgI+It9L1yo8ACB4IrkCyrwIQ/sl/2pD31MOaoA/mT3fuPRiT9Ilm7gVsy0fEhJZyrouKJgsNca0NhESMI99Gl2UAlr8hZaRNifoUAw/0eoOhBxC44ahNkOtyJm7GVN7+n7geAc3bf0D93e1eAwicjjZ+DRSkG5KjhgECmSx/6422X2bX0GWQuwJar1b8p/4yv7HnKLw24pSe4ZmwXL7g9VH2wAMdyNFpUBPx6Um48rxq1NFs64QGKLtihZNBWOIJAIJQDCX79W4+z7IP3WcW+nSwD6East7mvii6WW+7b6n5w1JVplMbAuwC2tsUc4dhNLK6QacmFm3Jkby3tWJOC2PldvEwixAeaVUecl2PqGx5dce2vWHT9Fk/F0BAs+FErUKAMOndCRAGB/cMAOhDls2g9wwg+JJAywFTzJ8aINB4yyA8jhJGRvxMgCB1kMIqxvo+QKhqjD838fXNc0vahejwauEV16hK4P6VAAIfoRPbvrIHQVsu2LD5cIDQ2mRLQc8CCPVoWMUH43R5u+dg8uwDBBAvSkP5KIDAu6TAS4mPskgO48+Vxg9AQnrnxW5f35FAPV5jWlpiIIDQ15uYG4P9dDpfkUm4J6FCoDigbvAHrt3lqaLEZEHa9bd7EQgg8Nm6Pr7Y6s1sQWeNMgXs+cDDMithLkyi8txgRx0eyt29EpN9XvqjAYLCweYeKjSXoXMYUdJea5AGHpS/iIK9rbOpalCAMhTjmdZ3pP/6Gd574B9p3PXHX00ylXZ0L87rxIC+0ncU1CP7j/xH4RSDDuDCVcwf/X9vdnuQ93Gqvhw69x8Y+pOnF0cW6DTD2g8xidWmybHTXH6H6TCPAWzXUWSTK/CQLwndecW3SrZzm74CEEA8cKUVeQRd6Uose2eAEO59GPxTPLitDILekGP62QbhVwEIM5i+K0CgbyvwQI4AQpMzN6L3AQgSULwEOZvnZxC0M+ISQ+GVfzWC1LsIJ9X1XnZTotZ6lM1AQGAfHEWcVILk4wEC5inmBX9RLuM/cpJZXSSvzIE+ESB05aPJUwYQmHbSMkGrexkgMHocEIxP0VZV3C/3JIBAIsMNPwMgSA9RE803QMDjYwDCf8SaVpk4wBY24hZ6vOi9ipMztcFEKE0x6G5M8QyJXZDE9xXAfQa8fZ4VUFcud3vmmQBWVpxOoOwDgQFdR2cTGmF9QkEDjf0bn1qQfEs12JhxPL+yxKDDOP2W6F6OJO+nlPEetVGfB2ovSOs6si09CxjONwMAOPj71yuj2wE2jUpwvBcYUK8bHaKl/5+DFnx9MrJDL/5U+soCYBju7gEIRDg6zUB7A2ZZoypMfkad0XgxQNFVXMl/pXbVczFhUXSvOUonBkQ2Oaq0r8hKi0YnjZS82C3z+zbDvK1w6NkdLfpOe+kH2MTlAdgp9h0nADjrXXuf6TejcXSKwQnt7bFZXpBlV7T4+U8IIOiACxx+KnheQJ1EYAChIrK4DHd+XEmRMh4CBO8jTYuhqwCBX3BEAIFvSOR0PwIg0AbF1tGrAAHojPmapR5ZHySMkja83gcQOE0fIGRhz+Nh3YmuCIzyWdBEuuotLSCnojcmfiRA0P317DB1KgUHeoUGr/MMgDDpiwwCPdNjOp/Di5KmIr07QNh2oqGCsQ1X/OfZAmR3e4lB+ndkg53rijocBSGNGH8BgNCXv7R/2ELZAOEf/4fdW0/imbcU76XwdBb/lm0QhDfoMZrrTzRI6tpkdn9Rx7+rigISK4OgFYE6tueZu9Wh/DeeuRCfZ2aBaD1Xpw3WpUhUloIlD5r0N1p2UGBlBlM/g6AvH9I3FtL7RwKECuBAwA7Nu62r4iPWgTHHi+rmBl2Wjy4PZ5wbThOFeG/fgizrraIqQA1BhAQC8XcPRtlBle85QLaCndx9mYMTx3nixX1Hlm9gBnVNBClsfkxnbtSOCv69HgMLfWycbEZ0emEp5YnclOMuHf/jdW590yJZ3bIFcocpKycAQVvd5iPeE2WD0+MAQtpBJzKe1nvfDIK2Gb6Pae9FG324/fzH/5601//ekgsQckGYaz7zKuCK3SlAo+CaWEMEJOybWsoAZalfK4BTXXQyYThdFyAs3sDsHwEHcyGSzjBwHvQ7DAy2KetZ+fjNJUBGv6HPszIIzwUIFBCpH1WAgACBhodWXkNh5HMKx+Odhjo7WCMj0sGLBZNVXOqtvUaZ16HWpnGbJYal8J5Fgw8vRXzrd88CCNROtEzgdUnVgdEjAQhhxNFjSNkI/rwKEIJA8cEAgUPcdXoujWtXAYK0znyTohz7b4CQ2bn2KduHBABhurdCAN++q1C4kDFwvdV6QQABuWBVW1ymhGamHuhrypwBhL44Nwnw2T5bfBN3EMz2U4CgaPG7FHprCCDwvknAYDMIGzDIIKg/2/pRGQQ0riiDsMt5IxsFeRp5D0RoQBBASgZiJUDAGurZyXMBwt6UqNv37fZzZhC+AcJGngWf6znUOzIIBDm7fpNbQ5+eEG3fAxA2oa8HEDjAyaPbe+9BQEud+xZj6R1ZBoG5z64NSBGV+32tKKvnsjkjVIYUSmcMgnZCAILDyOus87KgcOtuBBA0AGBhQGQO6DlZEF9S4LP6lulov/V7qq+XE6JsAg9JlBdQfPShRQH3tjjgDiDeg2BDIP46vJZ9xVlwoCPrSw2QSyOaIx3oSbO9gF/R0G0dEhBwLumND0u9QI2mYhrl6zJ2b4K4qlz4JQ1ErNOqAQNeLwM9mQ+pOE5dBu/HwJTUvoLwLpVqBiHyiTpTAXj1NieWeNOw9oL8SgBBa+/4zd1sDhAqtq75R+3Otg/vwXlcBkF7jsoYVGKip9eFMU2XuiIbrUwUlKfdSwyMsAAI1gWOkm196q2wISSalzXa7T0vwwJ1f0xlHOE9AiDMGf7rj9cZMIGCQyDgAYfPDRC26965hjOAIEMyBggWSJwBD+yothag65n3Wx30EUjIMgnYHWQbGyMH8SsBBA8A8OdRQC04Q1PkdwQIFad+IMsUJHwDBASfKeaN/5/YeGVs0rUa5vYqwBx5O8R3bp+3n//o/5qxgYIaEM/ytqMjt9cKQvQVu71Zc10BRlTbPfhLgND1mx8t9uTPmtcQxK4Uy/7A3i3Dmm89wEBLDL19lSFYmyF5NoECKT3jrfOjjSjbQJ0naXLjtm1oqIYvT+J8R8pt58kWKFzJInB58PZRBkS+H6ohoQEK8jkwGDR2alOh6tmsbKniNHSZfE0df7p5G7scU/rl0fV5xPcdFIwLFqF2cgcUu8/C5kFpAnsP0lKXaFyocjIOhc/i4psTmedZmxWtN8pPt3ApVfqj/aif02KRR1WieED/n053Nk/uT05oK3FBjzj2EWf6KGnuI5ZeoIy1DkTA+ehZGYRGvggSTAbhBEBWyipftwCCkIocNH0149B1pAycuHSfGHXRMQNH6QFAKA9taEcXAtcJQNBlF2jwlhQoKOugfi9AoGA7/v9rAwTaZIl7aZ9ujbSAgQACyQ8DBKmL3wBhy+MDAUJztK35TwEQNpAbs5oWBL4wQOgDrH1U2SM7Bd8DINwJsMy2+YqtX5FLASS8P0D4d723K5wnALVfftT7wWf2CFlpgDAFFtHX14mebHBkdBt7GMt6SJoHbieDRJ9snh8zWR6InlOLSzYyOPc9B7cZ8DuvtPGQvJniwfQguihp5WMY0tV9RTNwu0lxEKjMBCoZBC4DMpgK7awsvjT4ikleqTN67ikyeq6f5anyPHOwadqRxTNixNm23PFWH9u0WSbU94osVBmtPus1CKCLycB5LHpVgMDa0fRTJ8xlAJw6P9q4FKwBhH9QelORm9ZQ7Vfn7/4/JlR986Kr6L6fGGqu3gufjG2ZWKlhNColafEMgvZSWXbBZhCqAIH3lY+NI3Mh0yRwQvkXAIGul+pmBbzUy9x+/iMCCCNQlTZ4LGXkDXHAoJ0IE3wJIExlvwgQfKf/DRBINhQOpESwsWJ5VgHCPSAhmq14Y3kl5Ms6man/XgABjZ+WUCXQ/UYAoYsMgLT3BAhlM0gAggYJxidbkLDC6dzNSEfdscU+CyAgvY2AfaTnvzNA+J/+rbRcjUTLipYJXxHKvDACfayOnmf481Kklk5ps6+AKY2754BogeWDbkztuc5Q6GwBD4TcYNBzFDRHnd1TXMaKfGPzAe+4rCozfQ0vvKB9MAZQ38558eZdXE7a7K3K+Uq6e1QJlvEat80WcE5ktsGeVNjt73cSBuJ+ab5Jh8bz2DyxwySZcI522/OpUYX5fNkX32CkuKDg5NEQg051vfFBG5myPSGcljP7M7fTUb/b/6lO1s6J0yX5eQGR0VrHDxD9AHB7GxuXf9P0WraUjfwcN+2lZK2Kjcsa+mje+r2GyeuTp91Wg/OR4LROglqjfJBBKJ9eQDxgG5BZGuwxbz8NQGjETmZnvOyBgA6KLo91WkeFzS2C9wIIFKgViDAKXAEI5AAqAIE7CxoflJaXAEEehawaLIclJwCh8XjSRkUn/TIoHPJnuGZF4T4fQNijj/nHX4ActewSA3KRWnLj930AgfmdNRjfAOEsQIElAU7g0QCBRt2ombam3NLqvoBDTtK70V4dIGRSrdg90ajYv9feVwAIf/4/HWmQ0H1h3joC0k4euWI5JckgyOvrEByn3A4gVsPJ4FgrKQqss29udiC4/4D2HsCTCbPtRld8CIplDtblSSRf4m8HdNkHzT/vn8bmPogYhsROkYjh5at90RcdhdcxCpKfZqAqTR6NG+IoAgG2v5mZP+d91SFQv0jilptHZQ725cqStx2wkSM6cYKSdw0E/N+8jfm3GWLEh8dbRfa6jL6fIOq3tzeE6vAxVeMJ14apz3pzYqUfmfZ6EzN23Ty/54X7RLFM4NhcehyS+y3Ga1gPef4zrx5J5QQg0AjI3o+n+ISG1/I9Y3kPQOA6eS9vvg3efroAwVEAwYsGCJ7xsY8iZHrfEi8AILT7uCtzyE3+AQChd4cHbPZ7bTik91zRKwBBGwZtWtSAwfutQRAPyzFA2CELAQsOHiqbAfGoSJDgjVzrMzeSAMQpIHOW5SooXblI1SG8F0DY/KDNWwjm+xmEshDCLcobMFwBCFEAr8j+owEC02dztLEKfCrjEHjDtRSDfKC69cjzqk8BCKhfHwsQpBeVAKG/S3E0D9RN3mkFJoQvDRAwxpJDTIhQzyGAIiy5TZcl1qV2+e5W6aZDobxn8ACnrDK0jMAABXvicSr0yiBogDCDHIELkUFg9MUxUQqMnD8dLLOgXwcIW4UjgDBMJ7/m9B6AoA2qChA0OEK/K072tIyPtP2z7CBIzmb92wttHX/vwXRqzs2naHSeDRBoNwuHLkvShqFK0KfaWVk0Pg/IIIh9BbMN4x7pwWyvDA42XD/Txs8AEAAPZWCh/OlZ52HpPgLt8j5f2UQ9ri18KsS78ByAwEFFsePu6YV7AbWnf4Pu7eef/81qgcJ9keVZzAu6HuMjCFCWQIcEOWhX0KUO2AisOMiaVGvlmNpmm1mW/IxZWiD6dISR96j9DTILfUz0c93XxwMEOyL7ymJuVDtsVwO21YFaBkGPTbU9pKEkvwqwzTT8xOiIVr7xzF9SsKltG1ynwa5vNVacjORpX5ELNGEN4fhDf2Qtk5h8j47+aQpZsOfls7I+CIs+aWv75CwxvID+rFm6HgdNo72n/zIZnEg5AAgumVknWmI4CvB0ZTybavfj3JOByIxEEL/SF9tJvod1eYGElwaWIYieD3OAQAGWomel0wQi0Xg4g2c2v0b2Qe9O7AbXEQDhRD132VOA0Gq+uABB8vAVAIICJGJvQRUg6OWFjt3UPgoUPLnsvTsNqMx0/ELACCDwrWonAVvqQe37DI8ECMSrhJjXdPrzAoQ9O78OEPp2LtVFuVw9rlG//u83AAgt6PeY8FEAgXzEySjpgAR891WAwNk4AggjHjziXwQQOhCAfbtHz1GQrtB7NEAgkJIB0AwwWDr3AYQDWbSm0YoLCkF+WlsrNMt5RBsNp9zczXP6VsiXqbC9fwgA8IGgC4zI+KLAzmgJ2l7wR7SsJcqvN5JMtKz27z1sPkAYqnIdIBCX9e808H49xmE8wulYGt66oTQGuR/AMxRvUxy/MloHIPoWBB9Fif710sXNbFbbdfctqeMZ6VINIBD/NF4VYCB5rV0z7MkvAknz3VL7yFn549C5XRkETsOOi8wU8Pftb+arllJVHCgC0VXN9iZvQf0SQGB0ecYgi0/i/eNs3IDd2c6S7gRxVYCQb1JEerA93vgrGFudlnDBODqKWwnyCLggnhCP8tk7AARkGLGC1wECHwc5U0ab2H4PgMBBjQUTUvLb0PX8f5Sr7EHQhqFbcJzUpO9rwuMcSNWd1sp9foCw+lE4O60BAoGEWgKBy0JvOJ1cuMPvBffcae1x+moAQdvmN0Co2VwSL5QYI49jKdkxyPcgfCWAwIFBBVwYgPCvVa3hmKPrLLffkUPRZh3asQxqld3wUTBTQ9451oBABao5yjp1CgMkacTKHMjU/RCIClj6FINA3irrsBrd1yU3NCvngGjGX8sg0HKEF+53sN+9H2U3D3IFX/e/anJ+uWuZBOL3o8BCtMsYO/eTo4vYWQ262v5s/icIjtNAqUTF+uzVtpMPOKMccqHMxLopj27OK+3krgAEL4DO5+tqdhBAlnuYY2hI0aye12V0BbhCvOpnaA8Ka7TRgzychsjRsdcfbz9e+twL+arZt3UNvPaNnK9Z31X1xPbXdJv1g196Nf2MnLDp02+nMsDl4RKDQ3pLYM/S0e3UGGNXAm3Qp6W3GUC8N4NQsbHhbfS/V8q6/PyzBggycKBuSqEx1/UwgDB40OFs/f6MAIHW0ULergAELgt/2YCSwxFw0mqwr8XZOx5GGQ+sVAwZOxQfIKD2UDsfARJ+DYCg78hE0vUBQo9CSic+GUCgDnEF/2UBwrCXHCBo8MDsjM/i9CZsoxxFgMDr7d2w86nWn4ofOS+DAILnXRBA6GWzmN3ZQoVKFUenvhJA+OPP/2qENDVT6NkANUYvC61OFEvHEVldjcvH7IWnHyNHHwVA75YwmUkoXdKzkLXKQqx+MB6XsjtZgYWg2b4FQwdlO/QlSqR3vGwWqOV7ygpMLVSjZ+egJCsaZzJju8RzYuCxQ7kfKLRuPQosZOeQc6P3Mwa8bobkvffcGRVmLStzgPmmkcHZwa0FY4yGbNY+lG7rjjwmYT7ytiTmX2ulwNdmnUPRMGu5zPmid71HbL+BVlUib/YcROPj7V9QuiWmpwjR6IAYSTOYPMG46thkMKTxPSOKnogdE1C2Inv96vB23nNw4NVoLHRWGFQZf77tC5HmhGhsZDxtO/MhfKyLxCETo24DhrEHRH5H9yn3JSuDsABClxkzVwAQqJkBFG4/XhdA6BADSnY4I70+6TnPqAUKAAAgAElEQVT4TwwQWv+6XAHvfaNOBSBwORG9GXyXFj8fIOyBsmMmQQYZ1nsBBF+PrHKd8OQZfWbcuUHHACEzRJSW9ow5o7WDo7882MJ9g+yoX/vZ3rrKx3+8xwAvhwPeZsQQIMwuufdFXAEI7SNKnV2Uvp2R5BkAoQtvyqn7TR62kH7GQDuyYWwroI1HAYTlGz3dfYStngbuCQMUQNgehumsyXictJX5kC8OEH7++V92Sb12ZcFK2de65r/1tePpLobeI4X3FFwF2D6AzE30PyOESpzMUKZ3aJvTDKy8yoCsdsR1yd66Hl2QZEHM7fW2RdcFxIO87g+9n2X4Gp4BIAgw2dmDLKXb3v3nbpyAgEXWKAycbFaU44Owux9otGFWneSJQaOyORDYZp5tUoxmm8uK5h9Rux6d8fwNzDJIWhFAmG7T4vm6CMxUAOuQljNlJJwgAoda7R+YZcLvRZivKB7IfNXVskfC8TIHQdT9aIBQimUVmwN+iUJAV05kYxW699qxrU8ZhMXWzc8SnJ1e8HjVnS8JfRBzL0OSbfXlJVdUvP3CpGJ4E0Zt/91C2W0DBD7CvPxtbIZx/9GMBCFipBQxQJiSEq3hUw0PBAhN3L2P5IFsEF6bFMH95j5AIJqaHgMRBiC0Ok1GfDxiwHEFIAzO5Pa1TYfgAw3D4PcghsyKWid4C1WHUS13j3Op9yy/7Ij4iGgmx+qE0WIjRwCBtO2jAAKzIDAY2FF6/RgEMECwNzWy5n4ZgBBLUwq4YiO34scDi7T0COvjjp8EJHCAMFj27fLs9ILnb54PEOJ+PA4gdA384y/+j05xzQIMfRbMjn0w/wYDm2XzyzAX4N7t7I+OoRn0hBBp5mBNN1iw8gItusWQB0cK2txoJ623Wwd+C8SY0wxIfhWAwJOQlGNpH1DawEGH8SkZ1l8+YKM0H95sDwJJa9S5Rw+0LK0ixaccanPUWD1PQIBXFj2nZycbGmVZGySRkdNoVMCFkkR4C5sjtUBcUi9sqEKjZYBVabG3sgQztbozBZg2fZ9lhCHoMaTfGJzJ+w6o/14dMDNcGVfiXfk5sXZfcbpeUFfPS5NZ7SORXH2/vLgVoiOfVQEflf7qMr5/0AChl3SyCBlAIDuVqpv4lWA/gVHXIINge+jpJpdNVib3c7eXCRCWC4dKdDU4SICwWdcGQW/moUiKvXA3/SlA4G1p5SdgECk8vdNlNUDglyvxgBgDhHXcsRVb40WHQ/ca8GjtfoBg3Tl6suUhVeiqHuQAYUAQ5ECEYO7Y7HQCEEqedHaqErBxoFshPwzg2jVU2tMA4aQ/NcCgR4WPsASh483zAYIzviWAoGUaAYTKO+WktVoLgABU+lkAodFNL0JCACEL2sBu3x0gYPABAcLszqixGa0ChIkxJpX3BQjDT0q+ycLsKF0FCJv+7eVPI4OwDFwr735zwTkXAIJovQYQ5M1wC02IYbfLBVzxtRF4AIEHRKdOzyCoNfoBUxk/iP4GGDZEj3fbCT8ug2DbQk8kv1LN7jlBgI14B5ePAgiyh9kmPimxYOa4nE80E+U+GzmbuG7sumfd0mw9CwJygl4FCHs5QPWjxFOWQaD+IYdJ5qfHh/GxoodXJnvOZeaAMNTPFCAUxkIU8exKPdftwtj2DICwLfy0Z/eWrwIEjZu8+w8siDgFCFz/VO8KGYRWm24q4rWtz0IL8xlgkBR7DPrj57/woDcYGzmD3Ez5Crr7zBTPlekMPuvWHqms9srYxqK3PIAUnZ5V6wQAge8deMX0emvmo0zqZICRhaRFUGEUk3sTNozgQ+UZON5vQGpkIYwHEu4BCBw4+aZvP/SUGOFFL+J/TVETbO2fGBcFLBlgSKLrqbteHgWeUVtfUgRFUKJ/KDwuhqUi8+HccLyLDLkJMFECBsRTki2J+udmZfiYeOBOB/tK1iY41mjUqbXLPmpE780FQ2hsuF0S/94EJ6nfMwo6eMcgHmsLqDO72Mv3Nq7QPdPN3gxhRpp/gVMMvMfdBwDWomWEvt1iyU35heJGwy0XtDlxKYQQwGhJB/7xlI4/6kgwuiZ53FqD/Kp8FgAErTj0eweICkDoqiGUkGcVcHdWzFcnEixAkIBlUNMBEv32DCoqq94VAMLoOw+ofLgm7wlAGD2i4H4fQOCqIoOVBzWQUbdljnv/xc4ivivh3rZ3/V8CILTR8AbkACBo8OJKOQQIzXlx/bgHIHBQ5nTwtwcI3ihF9sXedRFrkHElkGcAYfivK5RPrX1dllQFCA5gre8zeD+AMGShbcEHCK00zjZQpCwAhJef/5wwFxsLPpRoWHVA0dcGy8Avha0BAgvydJLQqBKaoZ8EeQIOuo6XSbBBXah313bac9Ac9MtOZHSjm+20/7297OPPs1/j7XSkxwBhy9YL6xIoWaBnfbw9oTBGxTu5cG8WgQM53wU8EijEVyBrHrLUNi+Py+JJE0nei+g8KEqe9p5cmkdYua0g781iULPaJJCHTb20Iiw6nzlQTbwADJZKg7S+t+fAfCouco707sGZA95VdKbuOINwJ0AQ1acilLarZKF++vgy6kwV7GEFok8IiKgl1COaEsX6LW8oRbq+n1FZDtm2pDEwoNq0gRJ96sBerjRBBYWpt52VoGsM6OTibQME7rQzgDDKSjXhF/9IgOC6suVIJqVfAiAwwNNnd3NfBe0Pmk5gzLQUru7ysMFXZhDuBwiNgpw3nAIEzOe5Fb9fJuFZAGGfyZfBPwII2ui36d8HEMiC41MR5iiLHLYKQOjHdvjYAefV3zuXEYWK8psBBCiLKCDVwLU/X0+yC/1CnAIACMfwGyCswK1m/FKycpw1QKCRHnXuBwjba0uAQMsWzaz5PUcNJCiAIFniM1SrshwgNIXwlIqeazgxAil3BwZymI+NoJmrpq9/ozreDJjqBhmEhfxZf/qi1PzNI0N3ti9zt+F0mL3+i2OCBC5YCOnoji8xaPPVcsfyRka/x3TTwKPoje0jMwlcwzIHFXmnzLmiupWZItXTRxTnc3Qt8OoGnmXQ9eYroAsaug4RA44iFZeqg0TdnzWPoIiZfs01Q06DphvLu7gNgLlC4PgoG0Aip3ZKsia6lbGV4E5cxyw49gHcKkY8e8O1p3xFPC2hvLwfRZPwfIGdEuhphuwm9226/YhtXm+Wm26v2NlLxbg6mGtqEopeRmEMowrgNLYI9zpLFfijaxgY8NEbmrYuOge9kDTQHoRGgTx0t4Lb/MAXo9bC0WpHAYReRWYQqCaHBpWAcx9AWNFSgYzbuwMEDpD4cDEZZACBO4BLAIF4GP9v38R4FkDYJpABBM6T1tVHgQQdKNKo55j+BwGElcJGkQEDhGGz7X4QFaCAc9qB+5kAITpyx8TdMwjs97MBQpNt2wj8FQHC8gdKXdPjhroi1yvPNiKA4EVKQIvzdnTkEgCESyH/rNKvCBCGBCJfdgYQInq0UVNnEARAkOilChC4QhRnshPiDZ84Z8ZL92e78DOlrUK0N0ADGSqLjCnjtb3XZYKTD3zPQR9XBJgkyNDAmiQ+hp1yKRggIBi3TWrzLU8oyP7IecF4h+Z90lQ9x/QIkKCdQgQQTkAAmoHpGaPnkOyC7Padkgcudc8Y/VsDUX+SPoanAU7kM/uulxbCDY6Tvl6whBmESd+9jlXxKry9E10Xr2gc6VmWOeDtajr6d2FhXmcOtEoZXHcVAJ/YSRVIBOClBBCcdi6o4Rk0uL+0d6SZm5ex2yCDsL3N7vz4izw751mXGe/Qzq9Vcop6fN4Af7ypvaE2pWdWoIJ1ske8KIMgh5j/0oGXh6frAKELot8fwGIxrc973zEXQVvz9QkAwhr7+wECwQSUQeAqxqEcqZd0q1QiBwgcJPju671AwqMAAnfuRPMbIBjXegUgdE90YzN72qALIsPyVCZS6ui08dVSAVCnPYJHGb8BQg7qE3BynEEI6H1ykHAJIEwBC4w+f/CQjz0uBgjc99qjjPY0aosLzaSirzvabzZcAgj/jNXSA91xhfElbYOdea6OJO5Ksz618oI34Y3ywSx9YitD1/D3h+IXgR3dJV2HUAvqPwBMve+snfbnWNwhVVLyGt+3sBMuSXvlEQhIAWzZmzLbRQcdjln5F/oISHQfy0HN/FvbNOcKfxeDiDwjk2DUr/ggm0EiMtGJBA9ckJSnzEHQMnsN3NThlvze0jKfoV3vc5Qr2waKQvvxw80cAE+/p0s4yIunXqTIAIN0nRs9tL/QGCvwp4cNXV611pZn3bVkMukbGvw0dRIBaQa0ZKXGszwwumAU5L13CTCgJuDyB/lx1N8iXTSUSLaXZXJeUQIEZn99H25FN5fQmK8fHR2+Wb+3GQJtRi2wW7FMPzON/e3tVewvIM/b+rPDjt1zwCW0PukM/f7Q/dvLz68IEDBwGf2MAELvMtCiJwGEZRCaXwUQjGEOHusAQfZLfmOB07Khnz8RX9VkUtKwxTPD6Btj56Z7b43PAxD66KC9BqaLAUDouiRuaFlm/fsBBO9qZB6BpixPAALdKbH2OsxPQ2uXwZF1uNTDLglKcMS5tr83QJg+Bm1aTU89qN5Jp7NfPlxGuVQfDxDIF/sAQU/p7gUIvJcfCxDWEsAMeBHS9D6mRHsQ3AuNeLAbG7jkZUP0XhnImnLpvQcVNI32K8iwuAcBPOenGHSw785ELznY+XwHLnqTJje8maXAs3sJQGSZ6DaBnWk4ySRQF/XHntARzdxEH1VCS0ZmA6QWyLLsFHBnZh9HZ+WMGqnZ5eoGD/Lj7+FT5XxiFFc888v11oRNjSalMoGT5Sz2K2YVz9i3a20hzoJ1d+3RTN8jT++948+zMoXMARgPKXO+kExgYm6+5FkgY3BUJtFb0Z2DGXbZHPac0fomjwjgg/uclUnh5QLeS/sTAC/YicV78spyOS3YmNH+YHwS2mwtg5k/X9fJu9oSMg+rlzkIfy6PwYagLS2QHjcN2Ka4W1k9mqcWdPJx3ZkwKUkMvel3r3WUQbgHIKjlgx22UDbAW2rYoclkAtbFRTqARwBBGwICBbq+BxA4sGFRxgEIVo0TgDAjl11OoHY3n/J+hRwg6FDlZRK49Pff+pKsZzjDitHHlxtx6VhqykGI9URpMKau6e4uvzCr60MAQDBB/dkAQQMpcmtXAEJhM1+6vBKBCy9zEIELNX5w3wJ5Sj3W+pbKg3sdng4QyG/yhiq2x6ON8lnQzCoAoUKHEY+GuGLqDy3zfIDA2R1dxwBBjySSPL/Ppb0ni1BfAxrXB0yAQEvZXWP60rbyKQtytD+UP7AAwQuIO+iNK4+DjXidhKYjg/4IQiggt7rZXgROf9JY3viRAEEDCD7U3NBo6sfa5r4GZBCuAgS9gjValCBLAwTffHHY1JDCA/yDrt5zGwGyey078iz6XfZ782IuO5pd8NKPohcOQLgxI4Qz9y68yeOeBoBZPwYI3c108Mn7sf9GGYRVh4r19j1nEcia8TtIJSBKCCwblyjYeyAQte/wdA9AyJYTbCSYT7zr5e+xBw0QKuBAeYIuoqzerwYQkF7LZ/1egFIGIUY6BLXlKJvr8daugRggYH3eFqzvTHjre9x4P3pknXsrEKwcz1yAQIrgbDRrXy1cOUubMl9CMDdVyIC9g8/JpUdEHdTRJx7Etw+UARArelOhCrA4VR5crrTWhmWgXhsV22PTpnYO+C4JEawVje2nI4AA2mGPdLZguwPpGJBC8bKxqXTVvMcbzrpxloA3oKGPRs2y7OB+AQLgE3f2NQ5wHBhQGxsgjLrcjEbQttKz3x2JZ+cKKziy9kep/l0KTtrjKdIGjS6ifkV7DRQwWbatHKm70QxlAzygk2u3ETjfpLx4e4AJLBJX7Ukpd3ofw68GECJ9i8f5zEbsHgStBvs3+Z/lMTZsW85ibho0LA6uyP75dI3fijgo702Lvno+EyDAa6yuAAQK7Fo5KwBBBenhkod8fgmAoEDPchhbzhaj4tBJT/3Nidg5aBcvhRs5watOjWjeDxB4j3Y/1AzCmSkONP45AUIt9HwGgKA5jUCGDtiO7MWh9SJAgGP8BICgTegC1sBje9WWgE1fBQkC2GaZCNaLh8mgpvWy1McBBPLcerJlr1hmN9gssW6+per6/igCCEImM8E1KBmAMD/W1N+q4CoC6lbIjgP4bDYABnKvQWtDKfZqF0ytVgSbdYRkJfCQG/xYPwRs43W4QmtQgZTd3xchv2Ang3EPKh28IeCiAnew6bNz5B4l5aDB8i5VCBuy3XCIlg+kqUlKBw5CkOGbraqeA5frajkVvCd1nE082q3ooL+XHJADGm3vGT52ODIroOcOE1KRWocZhMq6vucoK/JU4Ci4vW2PMHZKtQ/hZCCP055/L/F5wT+qo9qLlhgObq4rhybu37oNl2s6BSvA4NAWLwOEi325WwZX2r2S7RrtWL1GHbDPhv+x3nc/UXXYsK244QAEfLXyVDB3+EcGQQMH+uAB6tW+ahkBhDUO8t6D0T4PwogjKqUC+W8FENhlUGFwn/KMToXMo3IztAAL0XLeRbDqWhJ6P4H/NUfExaFTEs3jAOq7AR8gkAduSwqfByCQvShn8Q0QQMQEY6vvKSCnC4O9BhWPAggGVp5FKbLtu4PjN0A4EzyV/gYItMSAMgsecr29/ME/98xnuexvsjm9eEo5+/Z+Fh8z3X4+Yo4MOX90lJAGzwluhgb3JzRFnHW9vQ88MJsPKskQYjfscHlotdwBMcwgvL78eHtp56lH/xcyNFrufc+CteOAjPH4ti+WUxuPROJlgbvxVF7HzH+Pdiv+jEtidMu2eGbUlVapndkPg0/UbJNfPaLKmqtNA6zDjxl1qa8g5YMc94Mw69KT3d8sMxHJEX8YhgPFHCr6NOy8R2datBxla5mDZuMFZk1Cr6goBwhmzGZ7qKwrxEzvoveTge77QDkEEI5wcQUYaH9atLpkYuJToT5ncgMULlQBtwcFHcz0rSL8QaPGqvY3mrXxnkccFALGs3gZhG883CdNIy6zHrT3uszk91EAoTm2TpLitTmhEAEEqqg9N6iz+qFAxWWAwIdJe5nPABC2UOlGPg1kLEBgAwHD9VZTCxBG3b3ksDysa4xSasgEgogLqcYKvantcvboDg9o3WvPluzmtBOAsNnVG+gC81fdJ5BBYIAvR9CzzW19iQEBEd60C1Sg/94OTQRnoU/+RizrWDOHfQAQ9KmJKJOw+pY58EowLQIEbn7Y747G5OAkDJwABE08IX0ZIMx23GM6WbsVmbMyR/LK9C0N1ytQZ+FV2odX+ssChP99ck4zWLDeP8dof12RUIB1/P6eA102Unj1zmz7FkiEuJP/R7NtcRSS83PCG5WtGOztx619hY5tH9jor8mbK5PMIHTABS4ieZlLNLyqtu8BJKpBGZVrPJOBDVo8xB6a9d3F9TFEDl72ZSZDliYILsBK7y07dgvNnDmw4bFlHEcAxKkh1gYIkydAqvrZWlnVEhrs+H23oURTRP3czwYc1L8rG8EUXRHk5zs9E2eXxJgAu/Zyx/zG80EzUsq3HAAET+s1CTiR1fbb5FnxN7xRDtTZZGoZMmNEOJCq36C2mB/LL/6QUuFOxRO9h3XgULSHcYCuOaPsxFCkB/pdVFap12IOTT4w57X9EVmvkdwG37eXP+4HCPgqHh1IT4LwrwcQCCTcCxCGvcjvPKAJgMw2cEtEyoLGRhrJ+Oj0qfPIFLP2Hn3djMCABghE8WTjoQcQYu7OAQL5um+AsEHLkvGnAghrpJgKoMyY1pDCfQeFeGE2i9fMRJXS/E7QgVyB4OnUxh8EEEgldPOe6/oGCH28nw8Qfv6LOb1oI/OiANgYLXH/wXgglFEGjgcCg7VeMWnySLhYYOiYorBAnTwjwst6M2dpZ2h3/yhRQfQjgyDYXhdwOBmENePlc7/9XQaZVZjjM1k2k5OZSUCTFPnMysJelnTqOM69mqfse+vIRLWAtL7DwK6PK18P2Ztnjefel/ZBFHOREO0bKK5MDiNWR4emXhPPVyRbOTGw6U4TF32esjT7IE5mQLbsCEvs+dLn0fiWha7LZBTdXTCpELXdpSzyVpdq+FSW07wDIHBjC9ms+JSqXSGtYgCGv74XIHgsXV164PREZoH96H/Sb1Fo1q6ON2Jeb2zVZbbA0B0mVjdVfTM0leWQeNz5HQ3I38valQzfqHF7+QYITHbWQD8KIPTBUbcU9t9i2SEGCB3GsKUW7e64iWn1kzdd7s2LVfd0Wi4KeLQRkAdU7a6zjIGwSTcivxdAsC7kFCScAIR+M5zaO0DjY/dBPAcgDH1mAEHfIsm/zGiEoQNBdlSy4PRLCvoLA4Sw/yfaGJR9JEAQwHBrk29J3wDBx6InAOGPf8kyCCT4iR7mlcobkdB0YJg6zhy0d/Qf10KiohRKZCPmuwUIafbPpyFaIRVduNNft+0p9TxpIIxnlN3CdvoB6tBSAP5EMuChN+L1b46JAQmozmamj8TMJKBs3cbesl172ZJdYIg+/bx1RqopPUcquoEA9ZX6IWfA4hrjWcRbhjB3ZC3RvK3MmL0hjYCX5TKbp27J85JxLTT/2WAIjQvLKIFMhtag6AY4+0EnGYzRRkpvxzPt3ufts7nWAAjrc9LzDQWR0sVFGihURkPXiSJjhV5UPwmsjTxqYhnLvRkEp/30noPYh8RY6h0AwmpCCW/9VM9HeJr/TsbU0RXTxTd4+6kFK0pygA6uc86ztjMZs/QI1vc43F7++FfS+7LTB3tH9QySwptwgMAV2wugAUAwXkodlVwLzUgZM4DA62TBvQIQKkZMAWbKrRD4d9yK+ujpfIcBrh33N1OG3ncW7HMLJ3Bd3O4GCDi9vp6ywLDrEECQhrJ+gWCyAIIiYm7i7kSGp6ZNt3oJgAd5G2y3SetAqEP56QEp7qa/MkDQ4WZo0tz4aU4cVGYzHjCoONKTmWSF3hMBQt9blICMMFr/3gBh2Uz/9s0VgODoihLryOJ6uhLokBme+5cWaDP5aHUgI+1HrcqcAISXCRDUscQeDGZLK82uPog0AERj7QJAWMLi37ilADgHWLVnvmQjguIkaDIICBTokZJl9tv91x72DCDw2hKcyIxb4AiMkwBljR5mfFEmYSiSVSIUCrGcdl0NInyqexY7ytg9Azwsb3UXQZOCC2uGxGAAwsQBMUBQvBhLknxwVK57vn/zgakFHF4qCw8WONjFBjuSzszIbidiM6PZdzIr0RXdr/lbATeSLp8l7aUgolFxklcAgt9nP8bWxsuvn4wexRVtJrza0QkkzYnTfgl0ZJrn9TryY/fKkyaKQbDvTbB2hCzVO3fgEl1RXbwEEASNTDcrcpM0kA/xqRwBhH896aDZ85Toi0z17+OO7T0/gtOk4AVfGp1Ji+JZb92pU8kcpIBABmmsI7LvPHVuE+uS1x2gonbau5aWqvDCzkQuZmWbdm+CrKN5kiFk0KK9CfZWLWqUtbnSwLKuCPQMdrT29umCGR4UDXdJgIGHJXs96+S6Q/ozy5iTVrMbyydz9G9825Dclp/VljGS4z/u50nz/WxEPSzVXHXFicw2p2z0JU/d8lT2bmzM5P+idjAw2LVJUvzyIC/YoyCgypobFX2ZxpfNePW8vuqIfiFY9io08Zn1X0FgewZAWKJFmlXTNl/SZBHIj89a4V6EyNq0MYLxuRsgMB3VnfT8A+yPoztQvBVQHOl2e6dPme3y+WlTXjfm+/byci9A4B25AhACpXUBAg9e9Hf1/0jwPkDgs202BOtPDBC0sTweIPBA1ltj4MMHCFLWDSSUAAIQGQEMeQZ+0G+zRM/s93M/8JhZsgcQWlvt3iMWrT2AQCPSaS+wojvmAwRqwgsV+/lJSnu0r/d71Fz2N0CIXej5OPhpYz4ikdwLI9fsdKNV0CTyoVmwCIIzr3rXhUgRKOIyATIoAQSnD4L0N0DYo/AogKAjyWyBJlZ/vPwbmgaYmbz4yl+vMGqZY49w/Vsrir7bgJZMAlDhAYTOsQYE3k2NntHuaWi7Knn/oz3f9ETnEDi/XhjUZQhlc15e4s/8TtLDtmQfxLjQeL7d9vKlYovAA3Jt2d0Gsk7BAc6Qt6VHQRA7mLXhsPtNfkqDKS4p6/x/NTS22XB84VCVUuSgrwSiisOnMlrHAp7XDJsEJsvGGYQJjtRlRLeXCfrac+3o4cbCxjdLYS6VIV70/3U/Oc+qr6UMQnU8UFDTsvX03RsDXr5iK+IzeidKwcpG7SifCwO1qu8hYMEdatPzhRPFu73T43Bik/QlPEccnZSmV9AP0z3PjpzgyvsKh+eeDAKuK6So2jzKCmp1+OPl32orXBDCBqLmxdnmRPNtBiQZT4EDY/K++SB8yaMAgs0RWDehec2MH4EebSEJQJi6lwGERZUDhJlR4Ef/GkhA8/ozgDDAiu69dQ3WyFcZCvLzwTdAyOLCgQPlAbvPVL8Bgi9dBAaqACEbMwvqHXi816sqJGGZA4DQs2eICKPBybmxOvN/qo2jDMIVgNDqEChmbX8DhC6MOwHCv+ti3Of99+DvNeDxiciRVmYDuAK53iDXyjib5syuMW5MepApmiCFpGe6HQ0crEHoM/5oD4SdX2SzA81jZkT5psIt6jazBv1YTQxa9tIODSVpnPfzAPcPmsCfuABBBf8+su4s0+JSd+3MiJJQNAdi3to5Vd7tbV0/cUYkCHwqg4JxNE6en8T9rvJmvy1hhyyipcdh/H5b6+NI8Tx6Uzbo2wjucUaipf/PeqHpmebbg6q8lHS6S5sBZqlKZhWVaJ7Z//R7LLaF3+gxTSJ/w5/xvWEFfq3DC0Sa9U3LDxAXxsDLF3R1ZZY14LG2sCgvskEGwXRL8oIvRRpl9mVunqwjHT3RXcU/9LmShxJAcIb09seLBAgyWDoBm9qHGYREeb4IQECwYj+LAMsSTsEqE5Cw9OYqQODgi3HP9ySHIL0AACAASURBVCuwroylCGnMOOugFHD+RIHuuQCB+tf4jjbXyX59FEAgqZlM/TLyqqPk8n8OQFi8vgKHmi0tfCWAwEVpAAK2n4Jhk0XkRcWehBOckwGEvGlR4iRGjZAYNKABgSaub5FtpAgpVQDCbL/fW5/YgiH3DRAg8vMAws+Xf69FvJRb73AeL5pDImqVQKkDpvpMM1I2cy8CCqTUtrf3QOvvnm1mJxNkzWofkcFmRloFCMiLIdookxADNn1TpFjGJsCgcEN6UoCxpk8rED4szDF+vM4d9XRqxp58yL1a5Trjzcv4q3JL4fx69+rpyyRCwZ9vRqd3tCF03RV0ZdZLJxJYYsSOsJr50AmPBQzZe/da42ntPJPgqpKXOeB86LGi3/r/XHmcOpXZYGZ6PMY5HnCQyGbL2r9RsEN1OS1SGDYJKyyPW34KmciKLHJTUlSQXKpEGkDIOqtBBper7hBqVxnkrMKTD4tKkjmgcnYmvvmwV/lk/Yv6s1rMEaPJILT7XaR80N6jrp10OBEO2+D/9vPlPwQAwdGsSwDBWwrIDMkz0s8GEDSfJ47FKevaW0Rb723IAMLgW5gjfS+CAwTut8nYHJchTVt2ogIQWjagbRy18w4vyPge8L0AQuOgAQEEEOjdUwDC7LqM8xgg9JE2y4SxTMVSwy8LEJoMqvbq6VqlPigTYSjYlKbxIIBQiVeCn/cECORbPYd4DhCGLZDxVAAHWsv/HQDC7T9u6fYx9xWdHNxLCBBIaBEgiNuxJxSijIVnIPzoIjmAQcfqRWX278mlSjNyLIFzgTZxH0CITLvi5uQNAKBfLUmkkG0fgZB4K4EdQFRtnDnJndUrm0Xv0qO9pdez+RXIk7vkURZh191SGvt3djsksRs/B++qhz8r2ytFb3o/oqDGLyfix2F7IbQcwKwEr7vqdVDiUf+fs+EtAYH+eVmNVZQyFmb65CPFLK77Yi7SrFgO8TtJ8stCWp8rk06j6/IEFma2wls+WZW0PZqJIPV+D7J5dU8K3HRlOhcAAyo76Xp3RUnvHQMFbgvmCvIljmgQq0pWUAQl/p3duDE/O9pzPyi1aAS+9ycHCN1htFqJQs2jT/s2HNTxzwQQlksWAGHDlMcBhN2SL0M5XynI24j3owECSU4xxtiqAgSqMmb6ZwDBu454jIGkRQCBOOczaX4XhAjkb9HXJjDgOQEIzQm6y/lLkTKnkr0f91KQTD4/QEB7Kib/zwAIxfCfFysGYbosqavorLOMIB/LwUfFX3GOi7xVm4c85BKa0Up1gcZ2/j+/5Yc1pBm2HegTiPUFXcTjqIMlJOndBxBOhHsPQODXEDwEIPwnGhkpvSUxIDr4Tim7oMZpRMpK73SZK8sTg4aktH+RWqBSUoNpYD2+MQZFdxX4JpuDBM5FT7/3B0jpGi16zj7f7bGvSeyIba2J0+BbUSj8OG00w9rf9ZhKO+vI5rCxwnVDAAKg+dOaPW9vxiCiu0Rwe5Mz/cCm1y0aqs9rnFica6CBjwrnsy9LrBEDIGnSX+0FWQ2eUei6z5jxNGXrSuxs5SyEXMYGHgRAdt88eroO1eDAQNU1zBccaDFeXS9WDLpRMOXIVBiCP1qYX+4/eN0Cjydxy504ej6yShyUKx+N9PwgGfw0sCkKS3b7HN0Luzzp98f/IFpVBrwfQR0zpNOf3nW7I/I7Uy4/b39L1h4HBKSZaKkB6mQFIERBEgEET/ll2WsAoWBYSx4YILTZQXT0BfPlt8uVdwCEiuLNj7/wqwb1OGoyCgS4OA8sGXgcjQuLaMlnKvQEMehEgZYCmpXbgIRdJ88cUNAk+uYWSQ0QgujRRNroeDdR9jaSMq2IXHoAhsqATQcZHwoQ1Aib5Qkv+CPnl9Fiwv9VAUJDdDYqFQ8Xc+XUvtML2EqhKy5E+TlsEt8AIfrgWx2EFoDv+wOE/3InQGjVGdcpQNDi4spdC/qDgi5Lvz1IgGjjOukSC4iaxtaOAAL1pwZM1rcYUgMn2aoxikCCZoG3od6hj3DKrxSMwCAzCBTaCbkTwNoNGRaYH6UTAZKKb4L8sigNEPi6ZG/9ACBQcOc+Hmr2TG/ioVIZi07AH9QBOoJZzBLclO3y25GieEFd1hFXVFNH3x0gRACk7oYfU7Jmq9hXMQ7cu84j5B75UK5DBR5TH7IGOxCb5yTKxK3ev2MGgaSkeyGvkY9t80sABFcdwMSE9mz9vP1dPIowrgaKZ155gZwrXlamslMXl5Eb2Dy+cftY7XlZHnhloPM+q8x7vXF3K21568NG8E1gMOdTR2ok1+eMD+zUHpFhfiH1NxsB28yABAQWo3CAYBsafnQEVPrX5aOCYub8O2QC8uj0LwCE1l6URaC2cJnXfp1Yfnnq7pXlfXfmbQ0eyXr8f+sZl9z42wIoD8o0LvU7HbCjAO68S45ZSsxUmGFlCvCw96kx1AzH/xjKrG9Hz3aBJgJ3dE43I3b1eWDlwLG4rDk0TlLm0XFhflfC9CFSp7g/cXhptwe7XY3s5XQ80J0jHg3ZrtwfMW17ynBdV0DLrYbl7kl7JbH5svX75+3vKQTl21hJStF29F8CIHRRgWN24zn+FwME7qiJigyJzl584B/01xxFxORuaab1S6sRs95nBQhT5YXorwAEkj0ECS9oRu8bOQcryM9rMGLLnAOEzr8wcB8gNKNvPPDipKXUKw0Qeh3g88YM6RsgbG04AQiB3ygDhMz3nPKj9Nr4GZa2gxFVa9ZpMFwaiCs+AyBw44E6/g0Q9OkMBhBonNqcxhNUQQlahIFwSytwdPkRtUN10Aw/M4jxfoRdqf37l3SXO0Sj2Tw5W053X6qDPunkudNt6vusP80BDJAXgGSiPABeBk26KGlecrEAwr6aeClAYShtkUl38qQvFMpGpNHTewKir0LSuK09CLOB2v4Lxf26AWroBFfRV7luEUqG+liZOxFA2DHAzhDW5sPiBU2NOZl1YJywPopOrOf8WiwOLFrp+XtOJvb2osHzkDnVSYACRBiqjnu8Eoh/VX1wBuFkMBdbFS1HKuTUSwFCxVAfkEEwzRBAYPNHpib+ttuMXz8ID0VbRr71jU7Nkf4tNQiskM2WO0Wtk0vdcxq7emT1cb/wJM3RZ6gqXts5//4EMbpVcsaanz8ogzAHVl+FzMc7P5M1Zti0g0voSnbskVxfpmAUXjNDlYGcU90ilfBhf5EiAggEO+KMAcLXfChHbbuhUpchSCCGIcj1jA2MXwcgDOOT0tpga/T+oQBh+gp+3O8zAITheyt3ON4DECj/hZzKeGaWtOa1j780QBCBL/M/md/x6n81gEDBWgEE6p65lj2T26qIC/LY0jf2MEBqAEJ7l2QwEoDQyA8KeYD9vQHC7b8BCSXzI7jEMA2gg4O2M2sGP9eeKhkE0qXKHgQqaxv0MwMyyOt8g9RkAhzj6VBR31n46rv7kk1gNo0zp7QyCYT55v/lqBJ6JH4kmoy+V+Bx4582sJkDnaUamHLMhFqWoSeiJkvrkqOpd+Lq0CVEpn/ABWWyJtjJY0WljtY6DfBav1733cpwJKquFZeb9sZfLia0c7cZADOxInC51JSAA3PYqy1Lr7+KMgiVPQea/ska2akwTwZ56uf2ALwxbhXIf7L3enesNqhe/YSxYTdP+WdnNbYZN1wkccTTlW6E7DsL2v3rC8bCias85kh+p6RSKsuFmylmDvikeWWN6MKvysg5thZVdeQSXRm9yM26t58QICQMn+xBcMtyhc6U+70AwghSeMgfDxDIDXhmdBUgDLryqmILWDggsFvl7gEI1C+Rxi8Ehu7m3gggtA9UtT0B43enGQGE7lS85a2au9Uu+dRFc3DBZfANEHhqQmt7FETmu5I3rzjZR5ShYKz5znwYazsDCEPbZywrBFkBXB7RR0UjclBUFJYp8O4F908IEDCeOQcI/VRXn0B/CYDw3+cUoaDgfTDbjCW43nORoRkdhaaIvn5X4CXZLEh6S7NpbDajHWvq+LmcL1R4pBo+wLGBG3G627rvS4R151HpHQVu2kdAM3/kz/cFaQWn4bBJX4ZEk5qKD0NjTYGcN3mNQ7ueBwENBDr1cVlpFViFAup8aQYxWsPXGSQ5Y4EXJZHlpEuPjR+i70m3IPV3AwrcXrlc9Ey9Mr12gEE65BogeDwtKJpSvFygdTNzCL0M6V8BWpd0RqEPyhy4dQtgc5KEqlSgO4oE7dDSBolAmNXbODVE2VFXpvV+2DGNvu46Q31kR0oGt5+3A4CwIBRTVi3UpRtsiaEvOQQapkFFqo3IrXsQIMs+oNMK3wAh8wfd5bOxp5l+AwJc/7wE0pWNht8AoTnhKMg/DiDQCYidkuVOS4KH/L7orwwQLodV4LsrVqUBBck682MP5FOTOgUIPYYmU5/fBCD0vQ4m3meZg88EEH78jxy6dy+PilGWAM2/0LtAiUUk8QypYmD+TYq7B6M/g9oGCHyevjlt73nNCg9UOzfqagZB8xZtrrF3MNix2xgfD3+0v8KeRBj9lRuyHbpmmQDohEaxBd9ns0C4UmXOlxsEoo0C96BkMwmFDukiFWDgkq1kDnSvX4HJnwKDVl7VCbtelPzTMgn8TEl9EpKOZjQ5mj5o02AygHcR5D4l5ecZBXgG4RJAKIx9mkGgjiEwKzstVCjNHEjeYHGwhDr2WtKJKW4LkxcTSpAMErmUgJaTOSjUvf0sA4QouF98t4xDScqNwZXgjAGCGuLFMA/QGCDoc+QVHp4JEAjU+Irz8QAh4O23AQgMVFb6nDltFyAUHGv4mUAv9a8BAnC6qYM5BQg9smSSCG+TzCtHJZ4AEHp3Mp/hvBeioB+tbEbvPilcqv2pAALXI6xPGyDkKXmkk0b1nT1WEssqXlKAULCF1Aa3LEzWtlD39vPH/1Pgok+Dpt5kiIb3OhI+rbHNL9lAO9IS1L85L/SO8gKDXVli1+fmRlmE8bZruqlLRhPNrK1h5WjfyyDgGyAl17aHm0v5rjh27NiPqKHEvj5ior68hjRj37uw72IgiMPlFWlVxR1qyfgfeNqtVsoYHUpnG5F7bddO209hwxrups6Kueoy0e8qQOCnEzIe6D0AFaazGS0gnYdnEKTvuBYgmZbysasABP1VR2JguyIVoyoWcakX1yv1fh6MZWHTslUVnQmL2kuAQRehLGP3ScX96V1Qew5uUzdlMJ5e3h021E4WZ+t9vwIMViSpAwSNrh2FEEsF4JN/S/m5Qc2HRoD6gQ64CCAMWjYkypD76wAENA4IEHhQRJqh/oJZk5PNkA7pVVLnFiDI8eG+0PNOFXf46wEEb1mg4oSzC4X6qE5xo2DeXlEGgbW3BiLjwV9usWOc0XoPgJAD+TRyciMRAKGgvSWAUKCTMvnEAl8OIFi9ex5A8OKb5/0KNnEwUbkTIPy/k5tklgl3m4GOpEEeKKkL4DOA4Cs8vzOOl8Jmpp/6xsilNP6mbAMCK7lRn2UQvP4ihYoBgQ6oW1UVLX3jai/4eIDgwE0B9iL35gGEPkKOvXk+XbcjRvbAMFEwzDMIZI6ek6jMHHSZaIbySIDg0YpGt+AMzYBcqAOV5wGZg2U4ua27+vvlAQJtQj8Ylw/PIDwHIPS9bU0c8ChX1X8X5Hjgh+4ECP9fgRvVsQNb6LvaM+D6/7f3XUu25Dp2tc/t7o+TFAop5EOa0Rj9/x9MlYIGILBgCObOcufWeeiunUkDgjCLIMhs7UkAYrzXuSLLeAG67tU8OXdL4G4robUxao/VB6U6Tte5GzG/X25cMrUlUErgUWH4qlPpnBIK8ZZhTEDUbWlgwLbRKIPYWprGD08gZCOKwEtlXLKMt4XQ23Y6l+HCBZZWa7bKoLJGa15W74deAQZEZxQ5yEKzEZigi2qE09+K4UkI2ONycYZv2WLoRqfYYaHYNhExaePbA4Q5Nr6Gk36LOTas3nkF571pPwOk6LOmDppm14MVEQU5JmfMczyPKoq2zDdN8DIn1+5UgLw/DitNO342W7WLLDp+8I+XKwABV6fJiru/Qhe9COE34YVKyxUrELHR2czBC5EIL+w0iX7zDh6i5n0BgtwiEePfjrlgyGYReeJAf3QoE7QLAKFP/+PlMwCCx433AggB7lCWMtKCH4BQl9uByvbGcN/iNwMIU4/24/rMEnhrIZl+LxdtN4dfECDwHOwBwrgMCZ07zs23AAj/TlDZEAY6+9i583AVCAjAwglY57u3kaH7RiJgoEex2hnud9+uVTvvtMTawa+7dWp50IDfIRgt+vRFn1Smz/6S4/euQI4jBTvFXZwgp5+ZpKi1CsepLpU1i7QsBzYgqvNzNsjfY6BEI66DPSNg0zNiS+s73pl+TIriKNHJnr1nZCIuRyt6rzw9i/6fzfJJ5KAuX1tXdwko3JBvIAm7FDnQ0UJO8lmConXerGC3nPmkAicr1EgOMtmEYfH8JzLlhOJHNVsH7VnlyyiclOhESPoy2iUtBwYQqBiD3p442OvVxQjCv09abq+kg8qcP5ZF9FRxCbNOVLTQxOcCBJ36VSDXQMw7AUJrvIEEGS3o66b+7ERBA3sz28jG+a4AgcRlrxvC9QuAQCuCECAMyCYhnL4TI7bD3pcuPYMzrvb+AQiXPNpvARDmyKWZ7fJ8bj0u8fDWSn9/AIFzDt4DIEj79nkA4T9M81q1sk0IAIWHsuy0mX3HQQqrbLOkK3IFHo9lvKGy/jFIF8ExbbUViNT3ug72DxGL4vR9vyiCoFte8Yv2/YLxjqII/dKOOfIKQOAtgcxYgdCeAAUTFXCiAbgyX4s1Ob/6083EEbMnmExCvMK3lXTPOlKApdWCsL/MVw6FbB1xZXEmVdHRRYwOyDaQtoqx/6TIAU9y1WZ1Tair4UnJowjCxpAdtVUhEvs74VelfSxTkZnqwqRA6/ywmEvpxqGqD76RI2Z2jb4tBQWa1KV6gUYXIh9DFKS3wlFW+bjqVSIixob98fIfHYBA0YCdkPQgil8ouH3ROIZdF2XdlgBh12jucHMxqBmaewBCzQGxvWSB2iOqXQTBXGvsGa8DgLBoHH9FcmCOkLtl9QzJTzdzP1vErWVkSDK064jRtwQIzOwfgLCzDJfelx37D0CIQfAOPHvKmACSLwwQmp0Z5O0AR+USpypwyH1JJPePBRBkEQ8gRC5vBxD0iph66QY50hdYevWTEIRFQh3TL7xjjqvE+MusUAlJMitaOdmuEz25ZFF8nqzIxnpfcVoxCbkAjigDlIFtA37bJiBQuj0cyZm0O27oRw5WmwogmO2CkwnyAYJ+ulNqrz+/zjr5It7bsMNsMLsXITKuFaM7y+DclsL3UaSizoOT2TFlXRrho0Z8uP1ZKZWWC+CuEuD5zp3ygIYywDjl1kdFEHaRg4rOHMgqs59kF+ajxKb9tt6iKKM/8iKe4x5l+3mzDCCk4GbHS0k12jPye7s2GpWDPwFA8DgcOcdAONj5ZKt1n1BKsvOoCD/+A93s70HQH2mSsRANJO4yLHI0eZv6iKbvtEo6sEWoFiC8zj0J46feESDsxvJZAKEriIFQFeXyjIPvNE3k4gcg7MRhvd8CBPfGtHr7bknQXRSHcP5ImpxG3w0gYJ9XZLfCrh+AMLhkrYUQVrYkfanNK16Hv18LIPynQGraY++VFAbxTetUjoIbFUNGBA5UPg4BwaA5uwdhTaYmemFBjBxUlKRSZg82bJLlFaXeI179YSVBexRB8OS4MuSgDNpEtbUw2bSSt+s8sLEZkodBSL0lWTqK+PhOP2YL9J4YAs6ODin29JPaP1iNfcfIQSp3c66qC7tKW0pyAoAQqXan487IQYpANlp6Jv0+ayK/4OlLpb8duMi0tlIXR7GPHFANuRYv67QpaPlFAIHypFgFC8AAxTqOg68tBZv4XjHcHEE4BQhy0jPEJImIrlwOBGiXyOjoG177S78rrECBeLxXQlMhM/l9AcLi91cDCN2MTvJwy+Ek4RDNsXd1dF0mUNYrEGMPzrj/jUFor+PEoszQ7QCCeP+uAKHiIOqzUSv5XgAhQrrz+ZcECEjUHfNRAQikhZX+Kk4+amdftztjNXX1xNp7AIKlEQEC276nAILluUxaHywYI6rMithi+M9BeVyN1Jp11UgM3IbPnXYzgADvwi2H2az/3gc2C53VEhH3BgtXnuO3twaoAgNekPT8lTnhUcBFsXaKC9jPyFn5NO5HvCthtwtOVue71gGUip/5ugtx+YmsV8pCGdcQRGoo9FCxSpYnYZ8DTrOkqWwAIgwZHl1oG67Py0nNWtlotV6rrUslEb9o2l2f/B4RBKI0k7/30C0PIFR0APmfydCuvUB2VRfaPeobaqa7HJ5a2WRtQTLZ38lTMj42Nxr+aymJeEA34+wjSVH+mm05HufjjxcCCFk0oKGg3aQlDAsAgl0fkfGKPJ59fg0gNADgsYmE5esCBL70iDNh9T0HchYa2wfHxri6akc2LziRILmUmMudtvD7GCA8IV9u77q9rw0QkrGzs3/1b2eScsyDjIyTeG4mc74zpGSrtCtzdqVOWbyScP5JG1T2ByBYrt0FELKk291cVQDC6zzWPWw53TViVERenAbd2ujdiewmerMFCFk/7wUQ/D4ff7z8F2EZYtSirwDyFCgeVIcec2YyJ8MXxkRe33l+HSB4oj/3XW7bYvBHu5xV4xlFFdylhyFybQ20XFi69ChWqJFzOAFC9l2M5Mgiy/NObwvvo7sMngKgBwBhcUOvFdavDCh7HVWMBpQxEYQiQNiNswoQsgjGtwcIjUmO3lWmyeXvYUQiVOP3iiJkA/vKEYT3BwhjOmmxp/tj3K0Wr1oAPgIg+CYzBwhVW3UWQQgBwn8VbxoT0UDiaqSiaUEZIa8RUOg1N2dYFVMnQkCgwN/1cDu6K0IgjZEccwQMtMJm1yivSzJGHQkMJDwjVumcgsIcvcORRS9XgI4gIkC8cmmHv5rRT0+iHJifgO37XNzx1nkfynNhJcRFkiOFITDYARMHLpUAwo4HGVJ8pm7V4RWkoExGoa3ORqBtrQImM6TxE383Osq0SM0voPHzhoXvmUTxuO6OJO3yBzymFPSFR5DnGuyttRN1qLA8/CBSPMlnR9l3wrLe70pSnkE2rMcfLwQQCBhEEotA4dQItPbXpI0kQjuEARBKMzEKzbLfDyDsLq4YvKHchB1AiEBEyMkPAggD7z2c6+b34ruXAtvGiej8AITvDBD20pGWKItfUaLMsZxZz/3s73cCCI1Ru9NqZWaKKbkfIBAVc0kF069p/AoAodEwvOCJHdvx+maA8OfLfxM9Eqm78E+dSAFJ7TWx5NwFxg6z6yNt3+hvuAXRJ+eOSIK3qikaFR6TFVevBbzYqJWRfj68HfEgIlOhfB3PGaWzUwbxtzF2MiQnnMDSeJbVXPTv28cSXBeYIG0837vjfeJayejJLWgOrRwaCoC5iRpIzkB72UkFnHC+vhZDs3t+1lz2M+1UpJOo2EQbUjJO+pn9cYiMGi7almg9tmVmlcar/A7kDmV8SycW2AEDKi/pxjHsxtTeV/vxBpDX1b3v+olpRYAgP76Hy2d9a4893JhZxZxbuQA+NEDAgxDZxGQTaJm+Im6WoXQksX+2pir3bAfyCtlxR2Mbj4XdM0ZXGrGuKhqVBAGfDRDaSEd0IBbB3wMg0PjaZ6snSPntAUIbp1w57oxyVe6faefEOGzKpjdFnvRDAKFrA2yPdg3NGXMZIMz+Smy/wvMfgBCx9jMAwrh/cf2TNMxlWigJ+9mPhfDx58t/F/V9oRhP8d0pqpP0v754jruz4LFDZMCHIERg2rc+2DDUv8FwsxLprdQMygJJFiXjp5sjx7oAQiFJ8SByUIE6ERCw41qsxXGc5R74ou31dxI5CDWJnP/8P9/LkDqTSWPhDDN/+5VldtblYbaoA+jZwiaabHmUEaMJJ0mQOPGv9XPiJd9kCkXmqgLXK3q2c8iZuay0n40aoy4AEKxVn0eLKpyMtCyjee8abM+B/V3IePkC9SwbQ4aCUMAzYHIwHvIjU09oVHlcZ+d7yBMe0JF+8mnYcK+18Vy/8Z6V7LaZmt04hf3WAME6rgUN7gAIa8D47e3RzwcCBMevW6eMK4CYsRWRWSreSmvR+AEInoH5XIDQRaRdVvQDECoerFimChCKzTkwP615d+RAdbbZVoiGXjEe7u0pO/dQahjY9XsBhNe3N5NBEc/SznHeBRCW/b8LIGTLVCsFu3EqgPA/RP0KeiNcg91WhFEChAU9fFgyh9yQ4NuvHtrtus0XW4jASrfiDpJ+vK1IRYU8OhHB/FkAYVRf90FE33rYmzUfMccXJeHK4a0P1R3OE4mHTBUvm0W/grUVNmY8wL20eO6FkIYN7ql5m9YgDUw5ojPE6XUCBKl+QZ9Hq3Zsw1FYkzdATJhluQmHnhNask/m9i73PN7L/EeWOIkgYHTwrgiCGG9jH7Iw6uYyqyvRlyoAByLYDEg7VCW07ogWdV6dan8zAkf+t2nwBAhkvamfBRK8CRql7LRZOp45CnlaVy4wUXJzgHBlHgYPHn++SICQmesFHghHaZGrAAYJECx2ysSgbRnwSq4FGswVQJ7WNYBwYJxE4VVtgIRFmziJcaP5tGRKbkheWS5x3sYTAGFhItE+fVAk4GFVbeUMfBZA6MIe2YJQRsZcr0VnhPe9o7kZdy4ABLZYPwBhr9GJ0qsIwolx2Pe6ztz/jgCBXFDsUC2Hrjim9wMI/gx+P4Dgw5dYPvl+oYoIQ5nHHy//s1srsR4P3N4CCAtGSEPnGUQBCILjHMXt+wlnppUU0YIOHOadWXb8o/8tSPAuYFoeE7jjCz1uEeRzYbFpDhDaPQijzvzYor4VcZNrUDKDSRtELcYyaIyVsUfAIIOkq/0DKAJEUgTBzIfc7o8AkAg7jI8nNZA6WzpZpYercJIlZ3yG2SB37vG5Ckgn+oEj7557cME6n6Yi9gAAIABJREFUHVXZRQ68FTA9iyS7QkBxW2GIT90sHAUFrtIvTtqw6CSyOM0vr6233RYAwkr0cXiz0fs0LDjqvr5Rqq2mpXjGpLexbmH0rDS1u2WGY4KsT80ERPtoXdJ+d4Eniwue5X9Nl0sAoTtS0ZQl1AMIOwHQAMEGbeb71IOLYTlzgMmInkg9DxAWNyI0VnGSshXk7+5bDAQQejyjf8RH7Kq8I0CwUMYLvZHoxgr94QBh6kcIEOb7zrotQFgZxN0vu5++zoxZ9O4HIFRccK3MCUCw2jeeHABRbqLgarrMvDdAuEI7HMXtTezaEe8ly91qO/8gIm/bU0GOFHwpgEAedMc/6QXuBwiDCh+sfAJA2A1QAoRGdJAhXQUIzhzcAxBQyQfd2uSQE4yFvk1MbRKsEFUBQqdrVudAyqcDhAz6TCS6NTyxadqBC2U6wGhlAIG3HCL+PVa+Datc5337hXMYGQbvOeoNlOmd0STT6KDMTwQBPMZHAQT0igWAUPG7cpq9oaR+x5PHCqy6CyBQDlhVJwRtYQShALhDu7fqYgQBY0Y1Lg2b79lo+7mlCkAYZVbJSh2M8mvKK7cx1nyTbvfx59xiILO33J8+d2mPOS6JjgeKAEGSuGB1dpnR9lqcXdiubzFsCkFy4puTuPV46I9+VAQLyyxclwEEX1jU/QfvABD48qNJdCSyvilCWelxjtlSYRUBjMK+jwCCRHbNbiX2e9mXKHM7Vtzlnw+AgTGGs64rnphrAEDB6/b4iLBg/LfYYoiWrAUjQPxyF1fV8LCUazLxhb4DjFeyITzPGY1FgEChR68pjYDtJ2fxPRFPYLavVk50HWWfjJoj2EhvKOe2LgKEGpyr6/QVp0t82sMCz0/4UnNyG+MJzQYgkNtW86/wjiR6lE7MKI/GyuTqKbxMR66kIm3aOf8SQBiNLx2wXCCQ8VTCBzvfGwCCPMlwQwRB3nGQmZsaQAAvXbKEq9DTAEH09z0BgpA/IypkSJGpMqnigOGM44Lo3kFT71/0wBkb9jS+9exmR9CuAoQLI957Bd3oRwOEZs0nq5gQ+Ts9JvoDEPYSsXR7Lwp+CU8LIi98Utaj/fHny/8SIjj+pAckF/R0dIZEozOV3Syyfeyv63pAIbulb3j13GhsoweiCYocULQgmuyrIGGZob1osN3eOP/Bg7oghWMSbZwDhCEXZ+Y7g5WjpTBy4AnTfGauxBfd2HfzlMKsyywAfvo20dODgLvlyEEBGCir7YAEjwQiVfINJ4sjCHvZ3BvBu0ucSVbYu7kO2fnIklvZW3eSMwzWpBbljpavshfn8KSdzIZwu0mDsm9XGU6AATF41sGpzQDIYeRg9PSq7kGws1VhpC5zsgJf4mT9ZGYBdxpUdfzVclF/ABDkcNbZADkQbbQllPAtk5Zry5LRy3geRRLIyb96IaxPAAhDz8+V4vcGCIlDd6Vvpx4jo8P9Z4zKCv9kAMG2pQECY60fgLCzTx/8/maAECOI4E0GEFoV533F75xw8b0AAoGWCogIEc65LeTtiA8GCHa2KhP19QDC8JfVf9fpf/z58r9VbYoSLJS0Xre/rNHOQEJ9laVBiB74MPqjd7qbVEYG+psJFNatd37MojPWBRVCyGe+gZwEzksQ78723GgMtUkNIwiViAJ0URUkmYdQUZvj3IDQwNR4QhrBIIByrEg0ZjMSJJj7hsQKhW/z5GTE0YC1WRVueLIe6EY4IWKVQXRis+n8Q2FTV/D5y0UQFny20lCVYEeOvAvUbgEIrZEkilARmaLYH6tN2UZMIkF/FFmUt0AP1bguAIPd8eCjCELM5NfNBWC/jkI51x3s4uXS7Zpo6FJJ0NSIxyrr94RHIrOIiAEIZCBH08JgsYuOnL4u68u+R/DqierY+/ttGN2YjAnifYCgqeG6kd2B5x2WkMApgCCNREXba6IhnZT5QmNZ+Rc9V8zrdmsn2wJIWVHngWnG20agrffiIPW1yYOWB10uEdCdX7XsWk7QHRhzBSDQXvAPQDhaK5kpfFeAsNH5J0TdjqNiX2aZso34+wUItCVaMxufARDQZ+XCJN++O0DwUM9y3iu4TtGG8U6SGA1mPY+Hu96ojydt9tkpyrAiCVahXGFAMEBOSFRPAUIHDs1LZaK2txTR+sl11EUDkFI0X3IUYBpSrz97x8N0rAc2S8vUYUUPGEyRi8eIq7u5nSCmgqds8pNe1SII6PTJ2Aqjy0ozn5mGqcCrEy+kyy52Rn8vW+tAibPi+zWRtTrFUGjzcAqL2iiK+SZPtVPZTzoCCEhlzX2ErLiDjVlgxdjd3aQUCPJsS6vGrHDaaEcF2j+k1bVTe9+w/MmO3kCvFBuGzC/xlv5Fq52NB2H/4/eOKj0LcZTFtmMtEDp7rLOX0IqntXcgMSW4xeCL2BpkI+hVsMhHK3shqJCtIwkzCW6GgxcrJ0zp/xMX2jgD2TKzJTmLQnK6wggCRxYy5dyL1BFAIDHdDKgCEFRyYfDp5u8NEBqz1meLZQQzAgjS1nWpcsOeNwME45s+EyCcm8GdazoHCIUWn3L+hfYPdnnd1vZqvydCKrHb3kknhbJXAELTDwUiKNzs9bf3DZ8NEMhiRHedFLgo5vUKQFgWaAcQ0FbtBWrptg/BNQhytxgykLAc2WhoAIbVqY4qYEuatT6jJcKj1uZnMScI8OjrKW3Prqxdj9road90mPcgvEl4tJBXe9/2cvw7FGrTJkvRyt58Z8FswMfJKhaPajo46uKgYv9mSH/G7MI4ViGzyHBYw3RDw8YfyJtipxPHr4Sybxd3VHdZ6QYN6fSungUCESxQZjV/+tYxCDxo6C/dbyWjG/BSIR2kcf7mfi/sFQudPpdeX0PXU/Qmhz2UgMGJGY+kcruksIQ7IsWFouaoDuU6epa7O2F5TDMZn/kMc4EXfNKGZGfWITnzPu0s2YbGxtUvoXMUdUAOsp5KmnP6Kd+gkUhkmms9uB/pX9B2vr10ezvH/Is/QLB83fJ0uczWktg9C62fob+taBaWWW1oO7DSwC1/qc4BQBjdLhlfnQ2XqRnvs68gqE4ApzneAQDi6RkOrdJ+fCwwWzCgfkgBaD1rAKHpKFzVYNgVAoTOgjnWORk7u5NHEvxvkn8LgCBsGa3ytwCBROj4uuTZ2Z0AgfIMXK3/CgDh0HE7Rni1cMHZRt1/GEBoely7WiccuufscVwIEOi9xFHfBSDIsXkLNtrOe3vzT2d/MkAY5sH3IwgjM+04Awjas3oOPk0kFBU8yjOAEI1XAIT/I9osOthO0KvactLHFZer1mYhb3+8tRC8loswnKa9cnJRsOyKRoRSHxXQSU47jIjBSF7sPQjp4SxRrl/nq6B2cJlnSk6TBghE/06APRPdoi4xtMrptv3FSJR5TKCGFihKG+a8AN/XvOFKeN4W1VNApvTwIPc8R37YrQSnDbzTgJkwy7pMhsG2Nojp/VXSDzOO2p8dpNEHAjOTX26ewRXnT3TunH3FKx70j8dSSgBBa7VzNkUQYCRBvLsIEHbK6A1/x9YuKhU5AHnKaNmdKpB9ZoZGTbmne+JZU1sCCGjfStt5yLyVX9Sqy0gClXx1Ihata/Iaoxz5BfRae1uyTgZoL+axXj/zdCrrT9Jm/ZineboH27b0mbTQ5jp/vkiAgIz3CW1PaYW73PIqiw4HnV5kGjRrl4JX9EZOsGqf7Kl04iwImhJvtBYjDGGUEYPxYFKgjtGdWwnk1Z0AQbGAfEgIEPZK8QxA6LTMRTLOnfm+BjMFAEIncYCEKwAB+fGhAGHZo28CEFAeMq18R4BwgCu0XGUg4EaAQPNq7fie8oqhuxUgwLcYhJNUxJqoGRkPUSoFCI4t4XHMNsxlYpKCAPBwEQ0Q2mPCxFQkAghecr09Rbe3hdcBgicWVYAwhC0SNbTPkR+2AGFFUR45QFBWjEcyAML4txDYWr1fAQiLJcgce0Nf7HYdxj4BEHpVo7QTtal7F7SidXSskMVewIi5a2wTLjGjRRuwxWDrxrbImMLPBAhiQUTG3LujYuWWeIZmyWGXVh5gjedKuXZflJOrLTRw+FvZt0kLw3L4fSWCkG5PUOcFHqRX54IcqX3qnTfT65a9d0yk+ChigD1FdOxADL0/jCB4AME3o5YlO5b2diZdXk5AbzG2geZV9ZSBBxBS0bI23Ay2DBCS8TgAIZazaU9Fc4Pdsv1p28Ho5zcnznbZH+JvsmyLstqyMWKwBbPPA4TFB9xafvz18g+dkpgJEg74RBNIyFAUsW3PnD1AULY3cOCuoMyyJBhoOlxTgu3D7z72dpIhVe6CoQaC0+ONQQ7CbjzKJOJtgVaDzZNo7vDCpMz04rcROhmBDecV/eaegk4oBRcofB9aCtnZCGHYS7YcA2f0EqIZ2XYSXtrCJMw/PPEIE25F4WjCaezk2yhjC5dVnW/FBMY2fuJBD9dWvFkdFghkNzPNnHEeNGeLZsySyx2qGQhlhQaPPe4cVxoLyiBQkHlg2BcqbhUYMCs2ybv2NjK0ZlZc+Ewh6cD8P9Oa2EwjelaG8Vjjr1+jkowkLIAw+jLOcY4it95seFTKPkrRaN+ChVwCakIj7W9me3Vfq6TuRfLi7aUAEBa6qIjzSCi0AxtPqHPEudkURF+VnMw2ewBeW1r4jL5MulyTsAEIY1gfBBDkBAiltOPRgugJpknmM5Nr+fgeAKErTjD9RwChtdENc67OLIOPdpJhyqO5hRPbcEKx6PS/I0DoiW87fk3B+HCAIASySmNqoDztxmc3gZ7fGSB47sDLY1BiZfWn5wq0MpiUeANA0GI9CHkfgEBGhwRvHadGgBCt8is+dVdGt631OZdo6ZU1xQSWHn/OCEJFNWQiYkz0AAhL9YiI9bSvugsOidxcTNts2wnna2e2UJFamfNWgIehRu+9HSCgZajKHIRfLWGxH3/UDidCbNmEy67MLYqZNxWNRvxSo5xKXXX60i6sOr4w9qezkFlcHERsOaKNH2mR3fJgKRowpYYw4Xwv8wtaxMC7UZFZmO2HRgYMma6OIU5i5GKjMzRxzpUIAhprQ0MrIFZXFEGQFjRKYMTnPfNrdvgeEQQ6LaD4hooH/ArD7J6GZSaa2j0QzkyJ3xMgcOQAeOHpBBvhSM4ycCjAU/fm3oCTdncAodlQRTMpqrzyPrJOOmLgB8FiYEAjGa0vJ79yD/xxraerTiQGgns7/87vs9nYNZLZZKRFj8O2PPzz9GVnAAEtkkYdkvGLiJHlj4OvfRFrTMQOvLSJXc50DmwS4/oSftccvaXOrQNE8Hnbt9cXAggEKeJPQ+9FAMd65arlE4BAvhwpi6NAMlSmayl1FkSorftDG9wTGX8XgEB2JQIZUldvAwiiUT5nLyIHRwBhEl7dlthZNfNefsO8ZwLrEmYvnNFfoaedFSk0US3yWwEEisz9AISvDBCWHbc2Gf3ZEUD46+UfRf3cgY23XpmcKCJe3sEYtxUJYgwUJEAgx5ahJt5rUkbYH7syK56N6fgi2Mc15WP+UlE+tZDd6QDOA3G2wd1MRza/EbCK+Z6i5GbrI5CwXY1EdMazygoyi6zF5RyX2UaQckaVoF92SA49ob9xTloYsvdA0b3EaeegLMoDB6tXTP3lbUcgd8QV3vPnmE8cf6HdXsRbjX4gaHDETZFVHUb2ESJjCApyxv0GNozADjdVPfkQbfcFNPGNtFHUoBFazJcRvOScgwBwy5SllUOHaoOXMBPSjyctt1SjXmS3K6LgcVFKsxxLBBBkpED2Kdt5aICQk2adOnVNUkQD9+MDgyB57yL2lzswHQJaZc8AgpiYwn61MSH4IAEIJ/chHAEEAmqzUmTmmEOfBBCUTdzaYjn3O4DAcEAJUJ+KH4CweII8z6wKvzs3whWDVirzrgChDbCFUHYoqkTp84XQaldb/E0BQt+27W7kYwECWZJx5HouJmAu9KVHGX2r4mcDBI1Hpa8Mc8KnV9ELwsdfL/8kRLViHFbxBRhOkGqMBC0A0UgLcd3YfhgTNg5Z0keTNEPGe99u0kVBWGaUtt926L0ZZydzEgS65IXQ29iGmPtdRDNtH0gUW4ogEG3U/hxaCBQcILTAVgbYNA8MnCOAAtMvJYS3W6orbi3ZUwAq8qUuVRAnEwoybRIlkjohkyVYDk5mEHqRof6tY9iMPXM0aKW8vvArpb1OgWdbuq8UaMwVDH5qS8HrfyxR9L8tcr0ykCfrCBuya8kFfTt98d4HdViGQL5duqJ+k/7c0xjYuC+PeqerHS1fJ5LMvQdxJnTvTEqeUZtZN/uq6xVAQKPMIEc1ytCxVRDfJ19G48ylQ1+cBwBhJ43aeOwBwk5QdX8rCVLXy1R4bSmMOnjlMiUlZnaUwrmW2vjjT7g9qkPasyUXIIjTYnASof38jgCh810wT/GaePADEFZ4g/MwNKjxte+DAELbajjwSxVLkZaJnL8CiDD2o6TEH4AQ8/93BAj6BsUfgOCuBjYgotW5ESAQMllAAYk6AwijNn0MadWtAATquWPNxxufnpFJfhEaiz/yZGlgpAhEjZMNlGSlAQJyZdEhTns09Nv8BSTxZUfxdt94yD5etcvVkDQi0lU2fELvDhDmsD2A0EWvN1pZnVblRsO+scWAdZO2GNUA4Ty3FTpwPLKtQB5k+2EXwQsWQMcAYBXqh/4vSZXy2/7uy7HDDNIrKGF70Y8IM1fKhjTIASLT0uXClVE9Wed8j9t2WJFVZSU3NEftVcBFxm+oD1G1pb4y1J2PzbslkVNrZoPzGoSXdeOybZPMgV3R0+25400WSSCmZmpaLeNJacSJLApxaeExRtruQZBbDFfkXDr0bCKrAqy/ltj9fZKwh+8IILR67YhtCSD0rQkfcYXOMQEI4y6I+C4Z3/lO4YNLgb46QOj8AVscAYTBSx8g6MvyqrJyN0Bo7RW/mMfiEgCEoV/rw1qST58GEITZQnmvsvyKiZB1TEg5afA2gPAs0e9d30NupxNyUv4ZkH4CEEjoZZ0DgMAx8zsBwtRxz6dMN/D3ARDIQOWy/fjr5Z8n908ETGKgJmxjJkcLz4KEJbzLnO1o0wKvkk0oxO3wQfk1CPev4npUvCibiy1GvPMDJPIyKHSeHjBAslpUQEIkvOUPLziSHDc2P03CHOOKkGcGyphmBEleY7xC8JaxOPrdPM/y6ppW0amqDm0VeDG/AS0AT0WWA4OnmAQq1kjmuxYiBcV2ZzkPyAq/r1pTz8UPb1h3AIbzZYy9C8ILi+1AhXd3Qjh1lcG/NyCQ9lOhp4OOi7ri2uSKXEc0ZjZ+tutuBUV9gn0le93uqEl9iWaVDhy2NnW7K4KQ862tz6w6DeSAd6l0Tly4xGunrnJkqFK735lN94Urn5cnAQI6ZhKeEwGMnQRe3RxrD/YnflOCyQYgqNeOM0Gw8igChH4pD2THZndAjG90v73Q9sC3BAjK5k2NIw0NtxgODJ5QysFf79Kh9wYI0bEwHAcvg2ym7EidDv4VAYIsljp5SuANMPxXAQjdwiHyBMdjTIbUd/YwQQgvYriHvA789aWiJEOXkNVBjzTmio4lttQFGw7AMQBh7w/YvgqAULkDJ2LCK5z2eA4gjF6yrx5aOuIx3wEQYq9515XOg0oBEDJkmBkxzYiF23JkUpHulfVfEWzZIhjvR3zs0qXjIkDoIjSd15DzR7d1dYAgYgyTBgsQ7DyFAldYNR9FEDY21P2mTr+1T25vPy8X8gZCeysizehXAQhCwnDocrliBPFugDA7EHhFg2Ig4FTlhriTJa2o9yyL8+QI2aUIQms3C7cgib8jQNg5e2+adnX2zp4BXnaPCHdNHmO1221m/7m/JK+XMiS1B8sTddFUwCMWVT+CYMV6L+qLhsiZVzB5FDHIZm5PWwYvtP0UACGyHLIxTzg8Ruy2G06sTytb2TOjSRyXfD/e4NMbhUgCwwjHVqxHE1k5EYQhrIMfPYo8r2Dma4dFDilClnX0UQIAqTSDAg5pza8wKrgAdAu4YeQpSlJk8fDABbaPPiywsaOpV3VxUr4VtfEvblgvkClzhFGUYwahk6r4N7wQKejfe7y9f0MrqUuNbDdGebHDjiwPtVuxXhU2PVPG5CAoaRdWH54rjwC8DE9CvBdAcAVgEkXvkOmRna0yE9uN6p30k9hs1CPmcXZcWLfXP3jn/OtNbzxeJUkR7c0vcXGapMT7Llw2OzlpPn8jTmafmY7eXauDZiGiqCcpUg5CRUGiCbfPNX5zFHi4u6LEt/ZrZaXjXTnZq25332Cg7STbpMX7AMIYtwYI63DmWIXLsU5AAjcBjp/A5Q8GCF13BanRV3kJIMjJzk5Y7IXCC83/jgDB48Qcp+fIkQWZ9fq2AEHwRMr7duyzwJcACOT1fgACw7cCQGh40fNSbdGEawY8xYD+o0Ue+5K41RUidS9A8C1ZtMV8zdlbJL9Mg36HW/YA0XyA9tfLv4BqZY7Ye5et7iUrTtAq0hoDBPzAxkrwo/Oc8/ygGX5wCRJ6PcD6MnGm5SEowRSJihSPaVGEVUfzYN15sIijJEQ8vbCiKHzLjgua1PXGTHvM+yjK0On3tNGJIqxyjiwYR1YDepFq8fPeTNbWpMVzCGbFs4ckq0QQOaA2PXXgzy7PVsoRBBE/jRy6Ql3BOLJoQBUoPDNtGXuz7YPonQeOsA+XXpmHESGK/Yo1l5ZT+0lgIZLnHbDxqNlFXE9ssVPWyBPRCOBVKivUWVMLbgo8PVeb2w7o8pT4g7Nv7yhSMMqtvl4LyYUIFiSlO3U8UZcomuwBiX0kofWMrn9Qu2Lq89im4xONVjwPENBCIXGIkkuaDIWeBAieDqkQ/aJ5hLTs9C6bJMr+ery8rYO1M99gdUZffbwXIOwMihjslGIfsY5xZAAhMoTyroaeZ8da+wMQ3MuG1EeSIsAacFud2BC67y6lfjeAQIAKxnUZIBSdfxZ5ydHBxVNcWYc/ACFmuQUXaLk1QFgtVQBCBxiiQZ2kqCFHhsF3IvP+AIHgwaCSro7OTcj0D3++/KviKTWhByWL7BByFSCcYCxyPHEdqWKSAeNUgLPWNCBgOcz+V7ANIVt69NTYUa9HyJDj80j9omeVb3XkrYk2cVuPdSQrwhHQ2Z/ZZg9XqACEprjQXLe3zEc5Fk+SXKnfrVyGeNb/GTw7q77aZsJcg8TAVsc180oU3cQs6tcbuhRKvkmq2qmcFQcYeGzcRQM8xkeWzfNZomx6AKM+wSIE5/DlitWN2FsRu6eAAcyXy4MKskEdqRBOdYKyPC5PF6L24bnrTbA9mxyu3ehwVL5vQWc/Su21pcqf0R4BAy8HgZ4heCCQMOx1y2+LP7R0Ro2vKPa0xCq3tgkyzngeDy9Bs/cNaX4HAMGfFLR+mVC9F0BoA8wiCVYU5Vhw139IHzjh/nBMwcqknYLKZYWTlQAhMNgDElBIR0+q/ER1DSB0EZ9Uau3RuQB7pV+UrLI/ACHwbBIgIGvZejh1jcO+Yj5mHfQtvw1ASNDED0A4ANSeU5i8/VIAAT0MCfJVgJDIj/OKEhp/zXOPIwdh9B0BhP5OXYM/v92gPvA0mJwdYa9S+jxAqPWkP0I1/RxXZYDw/8TMzIcgljR0L3nOkuIJanSqoWL1sAcfJJhvMMxq7j4OnGjACzmky7T3tmiA0LcYGoMCQLd4J8cx2qBQvbpedLYT5SD4OQbzmuZZ15IiQAWwM7qMBK98zkUuz0Opiavlz3oCTlIKcWT8mtL3rCZm6GpuvywBkoVM49F1vF/aXXlP+i99SwCQAKpMxtxK2R1mCfh3WwShIhy7cezGIH1SBVghTShjLs0Xwg98WZZDVFlWspMCSCjpkegvurOgoiP8oS82ttPL4Hj2ExRdOLRbJ8uprYhSXEbT2KII0fYEJjYSgPAAAuYMnICIKzkIuzt2dv4aYNrL488XCRAG+WPVq/+NiapGEmzZ6RKdlvfCoylBAEKgxldQL5CCtxHaewqox/GFMNv/1AORgzC2GyyCPAMIzZ9NTtF9CkzAdPKCHjlimQvwAxDGTLwLQJhNL5kAfP13ARAe47shDI6kUJ7qc8GsfxhAaB05LqkEEMhVHYz/ByDw5D8DEO4DCUsWW6SBogzGAzinJjpIcO2/NQjVKMPHAAT0btrHP/4SAGHpYSTk+DxbOXrvVn07+KpiIUBYFlueaNC9ewh9PUMnLkvL44RdEOn+gyXaqYXzAAJ/5pltUTz2FUkQvAMbhiZt8da2a83fgm5S0WoRhGD+FQNP5nWykqvAuSYW0PmHumIXcVzS7251RImnbfI7Wp5gQ3Ux22/vpQ2Iuj05uTChZipYiscBhkXblC1yI55Up6+T4C0tCgCgUsSjw6M5AhNZ/f4uuWlyJy8e/V6WPAOC2WB2R0fIk5OIAemTkNU+VMEMBD/bsTr2F/XS0F6xb+CoJMnWwCkN6TY6mndqlkyGw9ftkCvyOcvwFkbCgypAOOhWeCPp1/yR2TwGO6fMTgkQEEtYAnGi7wQIsredVXKEtEc+FkNs5MBpcyroqqWdZTd54MS/AkDoOi4XbcY/0FjtmL8dQFC3oM2BeisvY0RuAAgeIBCqyD6xKrpHIGGjA7cDhMBMFo6DXTFkx3XeHSCkHyY5Jte53s9eGvIDENbNsyB+6vBOAATZiVUAwsSAYdbjzuUUJUBe2qTTAlcH3wog0BaDXVxIJAIwjJl1HSCsFuXMVGfpCkCwV7wP2Ln/kqMECvYiI5K8WIIGb6WA4GVNgteRnX7MREeJhKHsmsNRKPvYCX/rgdqDRU0tguDNA8gKrQToy8cG6os5N9NPlSO5cJ6b2/eojaKGq6nKxjcLIgnZKr1PSlXGI7mSk14EER5N5T3uA759h6IV9keRlz4lQqCz35IX1Tl3V/YJKEZ+G9tByg2DVuOr6ge14THwQD/xjD6wk62HJIvHdbrWr0y2FVo8WXwi1hFAGJQMX8OAkYk9AAAgAElEQVTrG/5GD3mIa/Se0BeX9W2dykGQQMzcPAVObnT03QECTdpewPeRg/3kSofdp8M7GbEBCORjem83AARuT0YkWkQdT8WEkuUJlnX67I+iY44u+z4JILBvLhzbxBX2DiA8DRIOjKR7VTE5HJjQrxIpuMfa5XZw10cEEJQDn4UiwMB9RAsQh4gPBwhC6bZidSUReQ8mwruwbgEIu4n236sE8U7H3rZTS6+CTdKEDis52mmsHr6WfhNAKNiba0Mq1rLjfEeAsHEck2QdbqlOhN+23GLwjjWGCYeVewPmrC4KkdY97fj9gwYlGVmS3a4ABOadnvcrEQQXIMAWhpUuGKuB3N8VIBDdFO4oKOwPQCgany9SbK+mySF36VCrAOEgavQMQHDtxqQ3lNEMIJzYt/0Ca82+LptdpGnzCrYoxhEyrLMXgGcAAo2nH6CC7VFp62VCI95w+EU0ZYAZykEQprG/wFuj2nsbst4Z0P2phzuTFVEUMA/BAoRJH+v6RHRcUAtTv1pZrgzUTDroyzhyfRIBvzDWJ4RoYcBAYrXQJwoQqJzIxYjnx3wL4Uj3oF1i4y87mwxaxKkMBEVD4BLF3e7VJlfoXhlX20fqAk8Gdqeye6MztK1YznRnAddKjpFtRuhylnGPLG7q7Ib+O71nVib8isYLp43MPeXu3AfyoKZ04+RdejYOO0vu5faeSUA+ARddMYIlDw7OC2sOz+T/270rCm8fjmxrr8cUSaBvQqw851FXRxdke/u2i1TfUuydAUKjMQcJecJGhVmrfbwLYfROTt/j1w4gkGCMuv3Tws62wHj7VQCCVJePBwiSy/oaApqHGU4zgOAZgCBtDLRzCSDMEEoZIPjzbyTuMkAQLblLrg1IyMLgFjVPca7o3i026Os00vkkNlpP8jQQIHSRwD3AouP8ygBBinoh8romN5OnqpJG5TKAUBGvgqyzbFB7eZ0YIIz6AyCMNvZJiwX6KsO8UMbcg4Bh6u4YGT8Rofj/xPnyK3+QPnPqDLFRjVGX77PJjLJ6174Ipp3YAAVkL19f2l0HRJkN52eCo8fzNm/fWz7S3rfANSg5sXCEDG/geoPERuW8Pb5U9ZS4O4nkuxuABeM2Sh8YrPseBFVmIUEALgjnSlAWhVFPlKK3MWODLQkj+MKc32RRZu8ACS4BKJlOQh3PT9VYi8iMEp7wxwm3v37ZbX6BM4R0fiO+w/M0mhaxTbYR9OO1a3R+H/W1FBRlP9zL78H42WwGdiWxspz8gB3K5skWg7Xuyn1lJDI5gZ+Dk9J0L3CzN4v6aSsnL7Lj6h+lPM5FSTqBQhJiPzqUCUZN0L4OQJDObI16BxBWyQw03QUQBt6MTcR6179BMQFCBzpogyJDVgIJc25Zn+LLtS4BBB7mZwAEume7sXq3hfaOjvIOILHLAHMFCQVAWEXPQFZ9Q9miHST1ldu8WPA3AwhNF416fyhAyObhFCBozzR+ecKI7V4U2FbNwxoRZmHy5rZyCBBGwZGTME+qGYDwjnZmoxrBRUmW2YM/iFKR2XMFlrgwfBWHV2oT6R/lg1ZDZ+jRP7YSBgfEe9OGBgT42elWf0UxpviywZlIceMEeinh5PtPh7eIe6kIAgQ12ksAIQF9c7Gp+shWQkaZE8dgDHXiuEsAB5hoLkaaH4PK2jLiWZPXsqu6AyBYZRNPgq9K8jDm4L07J6QUymEzv+bDIcCaCrTXxi84coCh/pPQf5nhomBpS6YKHh25EMBakadyAzyHWXUUxP/5f0qpMav0nb2OnG4qWMVoQGViIrC69cpJ4zRmjDrcpb/Ee6Qxbr9tR0RbDvbzzlW5q/DXljHqee9FSecC92wOQvgtgYoDCpz+VwEIXT2/GUBQJuw7AoTOdJ2b4qra7wAQKjbEBQjC8WcAYSHV1RPaTWPrfwBCZ1aQKL0YmTk0CxD0BMjFzc4x7t57IKISDSgJHxSidq+sAkZTbTSPvnSzhxArFHEjUeGpL3SKIW9z2JkvDRDsRUlLIOw06FWzH9LZgQQtcFcTNDRtq82Fr7JwmqBBgAR7Vt8aK1805ZjW35ijhNGAJbJW7fF7ESdncdVnoWEhuGw2KH6oc9l8allxfcXs0PtymHAzeaKOCZV7qzI5p2VV96ZgxH6GJYn/IQlHCY1F+u6OIhiBfIKO3lb/IIP+1x7P4MTS7XlltdedoUnoHClzdCdHCkCLY7tcbLeSKzjwUt9oc6NKXn8RDZU2K8CgNIBNIbmSb316k30dENQpvDhfVE1ioqa3Sq5nITcoJOSo/7ks5VQlM4TIltbHakt6EfBun+XHmobKa0b5jrgiYJECnQKEwTT8F4GXY4DQuTDavw4QJI2nAEGPj+Ut3NKoiMHOeOFNjpkzvAYQpPPXYu8J5yaT9xQgYOcVlikR+yIAoUL3p5ZxAEKj59f8uqhM6U3BFoQRpCGNfEYXqo9yYh6Tdzp20eE47mA82o31dwAIkUskplwBCju+3aVAkJelVhfThk7yo+jC6+trh0e8NT0/nIgUXrs7KB9nCBDwHoT8BkVktvd7NyHx+10+gv10pnDGMP6GsjrgAUfrHYWkWxK9Yyf0sSYEisgn7kfYTHOCDLYLFsmCJ6wDO17vBFtAJRVFyACMbNMzgPHcRUHFCtr1gKkaHQOEZMzPnmJAgLBjL5fPVge7Rn6P92vuM90Pch6674sAAvE2cAwfDhBqYDme1eu20QKEKwCkYlPQ0u1ozmQYowGyLdwuoHdOHV65+cvV8fQKP+7WP2EzvQhCX7hMOhNyG1CgNU40tgwkrIuXRifeJ6eRY8RZ+pDgPGhnL0r6XgBhDdOK/p0AQV+T6SF6AghunhED4EJU5TaA0DqdGbTQZha5XlcsXwMIFu3uVlrxqRlu6wcg3G3Jbm9vC/LS/RpJjthiiE5hUPEfgBDMY+R9PhsgSHKjaID3PCgrV2B9aNm43fj+RT0IImcK53q0wLPArhFAyEBCtjVvAYI/TA+uEUBoNRpI4C0G/E4AOUEfs7GGOj1nKHuH9KL52jNbrItnI3KljEhq/qaQD20xiO75nuziuWZzM6HSBVxlEm2Wavx65GrmBMmPstGlTt6QGPAqMFExKHNO+ykGby2p2+AS7bESrmR8yhEU+XAajVTaguHCQMxJg9V9DKJsZJPutFUXTdyHV+OVE0yMeV455kiTRVdiJzKBclAUH7J/mk+y8klDVYftzUpVBwFkqaZO+seyEN1xBQfLYHSAFSURO71WHr9mO/w9Z5QdY+pt+wQclOF5B+lXK0PPXlibz6Vgz2EcDZ/l6VqWYdGdk5Z2bmPTF83T8su956mTIUAYxZ0kP+9kgMvrDCScKBY2HjN5tRqsWB1ntD7ARADC6e8WgEBZ8YRI9DiUb7olguBHDmh0LkBwE8FwHhNDIwDCAFd+WaOn4XjFXJiVYkGG7gAIS28Cw0M2TNCjJjMwYD8AYfFTCiMlPm7nbjH58daWNu8FELLoV0EGp1GP3VGlja8EECKFwCODOIHbCVXJicP3CJDR/2x8kIABuEpAwHUZTlTqboywBQg0BmfO3aSEeXHfJH1adP7QE5HvyX4NIHgMGLTJL/26EYRR1RPeSFgrZdeQrs/Ncqyxal0HCI0uzdw2O7kS8wQ55VbSowYI68KS1Tb99VwEAYBH4HxrAEGOOwZmLCtXAYInDEjgFYBgJzMXO2lglNMKqvGEeYZqPov2G/+eAcKwQD5AKBsGQGGRc/BkIFXnE2dcce6RHT2xhSc0Re1mtO5sd8W5nwCCKCIxQQa/luUwchDRFIT+hS9zL4sqy13sVOsJs45dDW647JGEebmV9GryQ09+SkA0oMpcDpll8/bny7/2v1fVncB4Qr/fZ14kVxUrQTjOmoHxJp9Dnf2YS49WZKSHxFt5XtjrqElnkzwG6ZC0vvWQjIsyPmZ9DyDYLdq6YSB7+5jn9+1pNt2W8r9CZnQ9mtPKfKFiZmHi2d4ieq+erEBAC5LWxiKflT9ZTQsUR46j4VcAAgHtCBAcAYWTwpER3rP6rMQBTSZSACDqrGO9opR1q8mq7rzu7FhFF3AgJ/Y04+eu71MQkDF81xfVjRxO5oiEUrav2bKZFhED1Xx7XnVs0ZjmqaTotWdHupt7gqdR3W6jHJCA/dE19QFAIL8TmziP9iof315eKVhDAGGBhBOBJo7vFEtp8LEpQHDRKIyOY647/jVAUKhoehHeM+dvI3wSQHDn7RwgtKREcwSXnJTgegQQ9MQIgLCRK7pOWc1TWEeMq4GEyln/KkDQSHeQU9cJc2ulwzoURf/6VZRwY/dJNgkxVlTiwBm7d8JW+jgtc0DT7QChW1RLcGTsvaGZ6js7VnWcO3uX6TaiXGpr1/cTzux02rl8VblkB+DSoo+F9edX2vcGswEIKEq8YMwo2MxHZLMyowJXu3cftwEIrbmTdVB1qilZ8bEAAuYcVIDCTqFKWlmlWRkEAglWhOYREe+6ZO5pjA1zEMifrJG3jyj5gmCTEnOBUdcePx7TkVMd0SPjGt3e2soQ7DL2eQCELu+KMbqtDiJQT0NjuU8aOwMIQhurAIFt5Jh1mEYtPzQuEs3oOy4oONQsHkXd2WWcg115ErLdOIxWnEQFPMPaCIsGXVTBAzxgyQdgSAUqANE0VmFyMKaKz6FP8aWCVuSZuZ5e1quMIyrzTN0q7VG5wcSmYrlzktECnvDxB8rSOmvudGoK1wcQbfOtywYELQcRxGFlczpkbkEYjXDAYrDl0Di+bl1cXyq+ChA8FjAHKHH/uwIE9hlmkr4mQBhOe9E2VvrvBxCUGQIj7AGErrNKVt8rggB6deIgKpGE6GK2ij2tm511nQn67Uo/T/rpIzJV4UrHyQB+AMIF1kt+Os5g2+LXBQgG35tvZBQAAkGMTLb6Z2EFo+hUQ0nXaMW0ZbT/cbZKH27T8+tMPK6sIXiHH4lrrzsrNUAYT9bXIAsjVEUkHKJ4jQEIf738S0B5JtjUz5UIQgF5wUj5yKHDgcagHpTj21xhtczhovWco1rknKDMihpY1vAT49gSAYAchCXtFaFZZbC08k39x4ogDEDit+8DBF3XC/1Ta8bNhPttov9oqBlAqKLu1jYRFa0QLyt6pnaUfDrLtD68fp5xrKdaf7l8OEFrcM+OQ4a3SsAQJe6mSdxFEV7/bY752QGTrTt18l75k7GflI0EZsckUe/XLMsb106bZisBkxKpTvvMOtRf2d7jRe8uu4sgehclMW6Uhhz2MVupAgKAjTzIY44kQuTB+2/cMjkmrA84BQidz2/toqTPAAhnIIEAAvkBKbp3AoQlJnGC3mcCBOSacdSPjwEIrKPkOkoX1gRC/FEA4UzkLrtZ9xPRd/iZ6xQVa34AQJCUHAEEkrhrhjBkQOQDGSDc0W+EGjOB/IoAIQEMa8WlTiMuvrfVW1QfnmO0oE8B1u1LwtF8tGpybZJcSRB1mbMm4JPJXfBOHV2MAALWpTEBsEDH10UqWpzXdWQLEBrrF0AI0I7SLtzYvRpBOLPWCBC8ZdougqCNxBwrRBAWpoqZXAIIU67YL4TRhoohsGXoSRkgFBcDdApioPTRS+Y2bO6BZ4oLAttDGqJc+DnfQluIXiRJxeoljxpGTch4OZ3hxC1hgi7vJLQ0GoJ6TuGb0A0mxxwDhJNxiLJIvqcLnHNwA9/bNmJvBve6TgRR0nGFpshCXOEhGTOPcfLZ9GLtf7+cXfFlDDURnHuQ0GzsgQAIwZDaPQqU5LeKkKfd8SGwy6m7y2y5Zwv6uXDt6Dt5oiyedug8HESQyFpO1+XlHQECKcAPQNDCN38JvemifDNAiMS75TjoZHECQjuFGO9HXQqbfyBAQCRCWzJX7z+IQEJdd/YMSwFCUH2d6RoF0kznPQkfW+JJ5uEpho8GCCRjHwYQpBAi73a8/I4AYUrjZYBAtrO4mlF4y+Fnd77S2aKRybQnmJ/X3bw5fbiXIE3dR4BANoHBtCM3FNSYCOEDAMI/TyqywT8DBC5MBFRZRxoTGnsU6/HyZkIvo44X4aIPCfV6LZfBMVqrR3SYmhZZl4/4z+2y1+l05VXELrAYXsOMvuoICCC4uQe0EJA6o3RxgovAcCMf+hURdFIkDOcllOOKciEUW+mqI90vNKqsjWnC1U0YSoXzz6YcRFGOKIuWyRWDVu3ohrb6nPdlUrHTJ/qsdtEouSOCIE+/hGTvxvMsMCiy1S0G0YDKqQLD4yCvoA/LhFUHFaQHrEe45YCfToYTECPbOx546GwFoFG15RzIdmMfOAKgkd1O5hxzDfAGWq/NCwAB4/403GIE4TMBQg3V3QEQPJAgAcIQVjJgg4V6amsAAXWhzWcOELCndwIIUypiVdKRA0/jzB00s7FYOQoAoQ9/evKtUScsuzO0ot9K0W2/zjiiaMBlgLC7mIVo8Ab0TQAC61jVkVUmL2jrZE6/HEB4YtxV1ppy6JgLh+dCEJFsR7j5BAJAVOgPtyCzyh5PKWkRt0qonei51MW3cWR9m1AtP/NL4IRoEv+X+NkAiLUFQR90qkQQJBCQ5YsA4Z8CafwINOt3TU9peigRMT13ynM5aq/V7WLDAqmzjJEDybLghvdwu4COUYgxtSxQF+BmvEWh0WDFt3u6ThhBcK80gP7E+KSsdj/OZFcMWFCmFFpGRYe2PGWURaqRgxMnUjFcuzJenoWsU0r2tNBVr8jNrO2oKr5XX40p1nGKcd4Po0sPfV1v37PtqjVHLs29Bxe69yIIRg4r4L+iWxfoG1ZRVJxywjTCCh9X/F7UJ1r1y7LcJbVP855MFB1jZGojABzwoaRHCZ/7q6pBmT6DzWgARJjUCRQ63x0/4CU3OrkIJwChnfOjnn6JcXkAoZXrkjHn9vHXSwYQ3lNY47Zxap4BCP0GxXYbldAN/hiFcRD69IJLYQQQuIMTgJAJk36HPNGqocNfBiCIcVr/DKEzJzmR1fMIIHiOzFy2ULR0PwBBMyqThncGCMG0FidyJWE9m4i66zAEf06ouLS3vOkQAQL6tF59BxDe094iQJjjcY8QirLMx4PEw+yjSiGoAHqYXxdR/BYk3AUQoJ0QbIpyXUVxS3G+j04/yG3WR9sVG+Wlwx8c9Ma1AIL8arMHEKiFxzy6KgACNSwl+z0Fdg8QWokmltcAAir06u9bAwR1OzHDVjXYDCB01e/V/LrR6QUNeK/IxazzEREEb7Hk2feLtmfnm8L3t0UQLlMwK16YP5Vk+ET/2wjCBdpKcxvIe1cFBKCV8UEd5I9B1V5YawcYKnRkZaaxiPbou7OWKyf5M4goqO5QgeC3t922izr0JrCdndgiYKZwfiZLGzkriyHKDkUUdgAEgaoECLKueM68H9+wGP6x/XcnR5qfwhMqVnfMQjjNAgQimITG6/hZgY0QToR9koHDin0tSLQh4K0GwcSHubiIxkV1By/cKUYHx7wfpXWd1yHqkMy39MbrgdoZ/8egYHswJnJ9SMr6XCECYAMWQPAjB3KGjdptUXkmH6K1Z0FCtsXgOf1M2TOQYJh/Uf6f4tvFPtNqci42xlfOFfGjnLO8v6Z7kSlpmh2d8G0L9spEv7xUIgp4JXfEbzUGDCvE+v/crJNz3wAEd9uAeoaEQ0UqjWMDCDA6YSwa2cbh6sa/7UQ6rGG3JsRJfmjv4gVJ0V0L3uTgaYUeScgMTxBBwDq9Xb9sE9Phx71vTaD1XkRz0qITFOLIRAwQ5CRlA7wqwnGb9s0PQDAgwQEIy+nTnGi++d9d2AMEnOHavQehpfRfXAELLkCYYz4FCJlNwrauqsOJo7uqVkf1ngQI5bXDkwAhui3PG+vWr3wXgNAGd1XQiDECIJw6XeZj4USCWekHgKEPZxeRCEDHkVzLwmKvX/Lzqi72Mewcvui/F9U5bWYo7ok7p49Os404LICQXZxkGZgDhFGerrJ4/PXyj8GocenZmo1yIE9mkVbIlTqatAVI13Pv6OByZC33QKB2lsFoom2SImJT7wNPYyR2XC38I6N7dATT0uxBIzFGSvSfLMMIwgII0I7QV0nHAKRjrB5P1XPVZNFweUqIiydpywxCDmQjy14mBd45imgIUT2MIvAqmgDJhdVuRfTftUxxHtmuA/hCgJDO7RxIZJgN34G2A1LzxefU7Up0IOS9/vx7aYoU/VWQIisFYSy+3tijYuOMuUnHxuPJBHlmG31keIrBy1eQNDlfi0ujGRGnR5ujtxV259J99d1WVG2FTXrq7f+XZnKa+I1Amu2qYCuBeRmBCNEP7SeIqNXr21uPHnSQYMDDfjzdmycHVUYqRb9quQoQWoWqgGcEfiRAkPcfiNVMuGqFZD/xUWnGFpOp9ozD1wYIOCNfCiAYwxPI2e54U5uCakTi1PE0AejtC4fXf/89AIQ5QRIIeD4MeSr9z0cABAY0nv35JIBApHTeVO1nBBDEuMgOvXpB+asAwWMgRiMc3mKuAYKKXgVp0t9c+AVtjMz7HO1L1evJd29glSnsLwEC2pqTaA0tQlL3BnMcXonsHWum/AXnRkXQn3Z0fgCE9rGmqlwB4VuA0K9argCEiwRMZKfJGpPeEg/xn8yw1O9gtabqyijBOI86Vui6fSk6cQ4CjVMrqBI7ZirST78FEJkCm+ccGIklD2T4M/QOb0scxXTi4XgWHNQc5em0ArF25mWQHPp+7wA9e6c65FCjVSeNurrHK7lE5FVAwglA4D5oRTKVW4kJGLMsIRGZnBqcA0LLYEW0ifPASHiWoQ/wkI2nTCaPLL5dWLYvAFSjD4EC62owzurwQ18S2C5albVxoaHEKhdkUW7HdXskwSuPaTe49h6/Vy4G+uvt5e21XSo8/zEvgRmGN5UTCQkwMLkFESCRHWsiFiAYtHiz5OU4dhOC7oDGL0zvKzvmVlghezKOS+uMLcpkcTdn08hJOe9/R23K5wlAmBadmnl9GR8Uo0BS/G2GNUzeWqBHlasuYoDAFuEA+XqWDhnz/QCCcrYHAIGMxF0AYXA3A2sxKMKZ+fIAoYvfITD1dDACCxU9zxz3ne+yhdLJnul7AIRu28ABRA7uMkBI5Lo6T98JIDBQrgwuQnCOAEYeNb0VkdEFNFgBCBEQYZQp2nx/gMABg2Yl1cp9Az4ladmUZI7eJBcK22XalO9OAMJCRwog9Cb2tlKW6KpaAQh/vvzf3ny8en/OEtLws082rx4QGiJn7eyNRQnkGiiS0WmO5baMMtBNh4jVXdRHK+/5/9AuKce0uOBz05NKfLYHBlQjRt6rTQQItdD8BgV7Diqyb64zn9yR7zKQULGvXbidgtW6z4l/vXYPegmiys6+3sW6DKR7/VER54eFSLxvAEHRBvPESgD6i+ORmd4IMnYRJ2+YrvLtDGUy8VHVU6Dap1Lq2oggqJtb22vm/SibiSTnLSmwBrewsV+OLL+njOAdEUyY7QMpNHNSuF+KFnkAgcrSu0GjsVVKBeZicsoNrZbdqH1giIfqv/ZQ/PE/U0Ws8N3GHH8F/a6jhCOG3snmMkE+gmqDki9b2beZg+ADhDRi8LYO6zTZIvniC5goR5UAQnPgBUBxmcdfBSD0+QgAQpusbqd5lI5QVQGCckw/AGEdsHVAAPHbhPpA3NBQX9D5YwHemu5rLW5rgfPYlq8UUE4YAAJ5qI8CCN1jCm27Aoh+F4BAvHfGs6KQwulKcCGRhfLLnjXfAQTPYxe8AsuVLkvbCHI35wUAiB3yaoOaHXmlLdni0X3Um3uvgwC9Qhfa01ZHRxQqyuLZKW+hIW37/Jt1SDr/8VDeNdAAYwwQxMQ+CRBaSyZiUAUIf8wchLaTJZ2jnjhkjBa05vyHzK79MMoxWE8mg8TcNIQzWoKVB2DpZTsAlbvGm9qyk8kgBVYr8lsPgwfLeGLf9l4F6I/uKBDjjLYYRj+aTlSYBaw8bziemdlBIO9mbs/5gNwDX3UOPXHlFIMd6Oo6BQoTF2skF9fdgY6SrTgcf6nNSqGZ89AnGWiIwkSy2SihhHkPxxCNIE35dJPORFQzu/wIHX+w0nOjJzQWM/aMd1EY4MIcUlMXIgiGQvYdo9HOhsocmoYon2G+6G1IISeXKA0QObtZjupkeTI8b86EMd0KkXCHK79g0CatHLb2mIBhcKUtUpdH2M0YQYlh3mZa46QNj2RTvywdWfKg0iGcgIAqs/1AEw72HRMpeWuA7mrAJMfJPVww9KhKi4zInQLtT6ItBbrsUUYOrEZNOY0AAgux74JUeyoBcIp/lOUvBYSEgp8FYcZ7AMIyhsZusosdebPPAAQTWlT808JCIUfJzDpAWG1tAYKC8Gx1x0xtAcJOTR1j7QIEQi0LfIEQrZ+pU0d60HGKVtsrydALQxmtXa6YebLaOzQMVKviXCKAwM4Jju25wxTnyT1Q13lMcyomjtr6AQggQmM5dR0gzJwQ9s2FFb65r4COQIgJR3mSvxtAFHNPi751ykALBiYg1gHCYFUV0xM0kuufRnb/Nq9jg1p56TTHyYdNxDjSCRc3yMIErmdBBjGQPN4Aw6R5gGTBrVlnMAUAR9e7sXWiJWDV3wGEX9k5R/oC8Z/mFIO2qB7gJ7ubmU3MaWB7IXJK5bPOBJB1eZ8BzkdsH6XjXH/3Pfdg9WIdtVQc7SDY3jFBZBxFv7jvZPbAYyfHizWSh+mcJD+X39Pt4K+enzEQj1mB6nHsHCAIZ8W1mb1L4pNUGGgosgyhxaBbxjbtVC1OOq4djypMuVrGiSQoAx7QZpyzA9LY8PjJ3ip/IzQGRpOdVPNY5kf4MZgkWS3QX83VCxEEJM2AsrvnXl7iI12iA0a9OVwGIMg0Q0bN3/1/rXK2/TC5qfRX1O+sYHSiWT+jAat3oKMHP/QzBhsiSqU90Mqz0CSNew/IvElCxrMxZ48g94BYyPU58pvMNb8KyuBWQKdgzjWbP3E3Ti8/72hQAKAbbDEkkhexL9AH1+L044OA64sU+MIAABGBSURBVN+qiwABd2YoeuNbpdHOwwKEIQCEcj2dHN9GyLV1BxBwQt8bIIzExIgVaFRAAMQMVABCFwsRcrL9xsZyBxCsvVxPYoBgrxpVdqdyLFBD7cDTCQo+EiCgXUVfcwtAcIz3VX9/XC8BCFnyVQoQ5lzJzFzpeNjnyzmNCP/mAAHVn3myS3g8nkhhx+WCBQ2T4CeCFXMiwTNqEUAgd+jVAdDARSS4mNGLyPY//qYYYnpRAAHeTsO3LpGjphoQGGU9gGBnQDvW+BDTgCoKjPSq2eFw8tvowCcVLkCYi7NjgCDtTQwQIASiIhAIEDhpkacaOYDcDAHCKngXQECMYwCCQ2sUQcijq+gmJ5K8GkEYeIkRXQ0gDHRLKPB9AcLqB2GH3prRb9F3lE4xJOB6zCflBzhSw+FuUibHuEaOPHTwlRD5E0a8VHXLlFIr9UJkaSZTngEIUufI5hlwdREgbLNSRbsdmASTbBFxwqrAcPcayTx9CkCQp2uSxZaZjwtbCnxJUdSPY3yPAAKBCE2b19sbz7N+O9IP12eGh/kk2z3KalH355N9BtnsIHAcL4DHyYD0H638rT8VckZoezY2RbMvvWW0QOWB0DcXNMhRIEDmOvTcGFz8LR3YAwRybrH8BREEnz0rYQ4bHAOiYfVMU2yCZIjG49Lkz0zqYBGIslCRIc1mG8s4ZdkOU1kamB4zHRtUO1pMi66zWGP7WxGEPFS6k+GhbHIS/H05LlGKIgTjwL1uT3wigOD5hRAQuA2L/bm6m723ZGU2nu0xAQZRtIZvUZmyxJceJbeKUhm59bC3IzC4lX6sX5DRDOZxCSMUiPhLzyv8r5SZ3ZrzYR69mEw2y2Sy674TPHFtonS6rU86fzb742E5laMji4oVUK/LkkPT/KBLT0SfVRYH4Mgii+p07MIfmAgBfShmNnrEvgwcd5l97aBinHyI9Q9jBmM0CyjwrdYsblLuoOH+Ex38WthzfoS0t2wbvY8yLYc/yJq/+xTNGTCRi9H/O+UgXDFk2llmAGHyPsgH+AEIa59I35iIoKJi7qzfcASXGn4GIFRE5t0AQqXzqMw7hpBLZFVmkRq6ASB02zIdAFlinHcqcwtAoPElK2Tmk+SFvwCxLP0dAIIY1RYgOGXVR1YANFwGCN27AuIZPwdAGC4UtWeRrwGDdHEUKVgjoZWjfhJpBsEXNlvK+dtaLaIgIVa2gSDfjaORo70YIIj5CJw0gwUlqpIjMgIwIwJKJwAgcE7DOMXA/lQk2lOf9wCExz9M7z4maiE4eWUwCYdWUZ4OAfuMage2QT0OysQfN4qViuuYSJwjPIqp9vrhzmhfTxZKTBMQsc/xm/IzPCWIAYIunbuWiuNxyjwLElS4LJxULUyeX8isQ6tdGV7JQU8zdxSxKDdcKJgMBGkyikWAoXJcLljtdmG8k5l3tlWdaF/HfOYf0tcDIe38vRfWl8YZNrOR9GguDX7SrsxPKMQVv3SVERAT7fb5dsrBSt7wr/NA17O2fvSzjh+uEhQ5WMfEdQ8rp20PDtHJe6M2pximMzWRBGcLYhdRUJRjgz1zctp5deR9Tjb7e/pDAoTp9FlMRRkJGvp7/RloAjPjCxazgTkR7Vgjz0n/SFNlm2rYxsefEyCMjFB5a4HmXHoZHcqs0EP3TgsUtXCBUVB+qPsDEK4a1imBzzgMebY4zAglxzYnzgMVUTzwUx35oXMpwIMU6Ui59my6jMjkSTnxNay93TvHdWdbVTnGcjsadu/FxKVbDe8NECIBehIgyFWg6mIeeYpk6QAgEEh4Fcb/OkDYKxIfGxVO1JqQMe/RJ+tdkCFiJDKioAEC0Ne7GbIxUv3p33T2DBCm3MqcgkGh0FcCFTLXigDFNYAwEFwVILxogNAHFTprO1GRve63Re0iB+wfFgsZXfKniAsegfuBVRLdeCjIXq1RnxPpUVnyXQ7/6Dpmam7lHEgB0Dxat6D5QEc+Vf6g/8Athing7ng8JdoZwuT9ZafhtImaugMOe3vwCSWEgu7Yekxd0CCeLpC/sY+tzmZbKcUBYTG1Ei22kfLmShtaj2usv9JP1PJdW1RRXsFwM+r6PU44JJocY2X2FqeAGN1rz33h+TVPJIwRthv/bD+81UBOkY856oRDyT3iPrbnRRYaZcNd6jn7G12mlOYgDE+MiY0ZQPC9zbi3InKpfIWzEkUPIEhAIHMZW4SKgMAs038LIEB/83N53TL4HwAcCuMeAAP2cxRBqCmXLvVeAMGurDJnRjTtAcJUN4HrviZA6GLyeBYgTGELJ/aCodwCh78DgLBj6xVF4jqCf0FuWi9qnPWu03cACKRMLkE7erz3F+QRtghrvV7pp9LyM2BhAxBU95Gzl4UCd3YZIPgwIs5FuAcgLHtt+d/BQwIQKKqAZeLg5ArN2+Xc28u8T24SsqLrPkAYxR4d2kBrBKYYUDgAoVeWJxrENgQ95wgiyR2BjAkuPJG9AhD+ohwEaFAOK1qgLDQ4Kmeqp4/cieMsYsZOji8u4BsoJkUoBFUL0EyE50Qxxsw6KxNkgiljR48XMMV8lHUnaPGchpgjj9cVHutpzoDXgSFVggCZuOY8ZcXYfsUywaVMt5IKPFcbh890dANASLs/kBXTzpW63nii5cqJlXqGx63uIUiofGWRQ7E7YOBEA4xB9cJQo126/fAV1spos/rtAazT421f/bc9fjrpMN+7NooMNzkrLuTlX8z5CE7pEG3khuVJ9nYYpzl1us6epQP9tUMkpWB6QIHcQ29PLJg6UADfPACC4xkFSJCnGtrjcbETOH1zaZIAAzO3Ynxrwt7tMCa3vqWAGvD4SgCBT2VNKj2XywOIthaowA9A4C90ZUg7hHXbaIGDVjwbzc8OjeeztvrD698xvsRZXtfxo0+EX2PbFSdPPV2pewUgdIt+d4brNXZZI1ZsRzhnU+OTAcKAChMwDOL0zM53DBDYQM+RJAJuUYrg4NqAkGk5r4+x6h+X+o1/XtQhiig0anD1j58UkLc09i3oECAEIOGtbd2s4+f9I4IKIEgdEYtWIronDs5NoAkQaJyKZXcCBDmpaO+Z0YQQJ6GqDlTioyLo/Y9S0cGISF3Aj27M/klsNGYWTJYijLIp93FAjr37Dqw6WOwp9RnXNOvdkjBdZnO7Fzcwaq1cDv+3tUaBka6ChHhAy0p0Pjr9VJIUv00UIo9mxSLv8AWV790AwjOO+opz93zhlXZkncxqXRkfrdYTulDmo9/Lb4Iu0JHTABuwhZfuTSSJsd4IY2gMNgmNXeGTuzYfU4I23jDK0cdJQEALJV4iN1LekX7AaRCNUCkR3oLDM6Rsy3XovwMEFUkgajA3Qc8BsXb5Di0HfMmSsF3rciVKXkVbALLUfzZQsZIN2yMGHbzFQHZT+i6KVrQY9YgcyH90koHzDyZAWJ9yrhsTE0G4AhCAOuXvWG8QBSYAoTNKNZoABGpHwkeR2OJPMgAF4Ff/DCco/BoHggw0QJ5RQQFbiNaahzGttpWKEb0KEEKtq2W5lwGCYwy9kw9RYmOalBQY2g993BiROPsAI5Xq1HXaGXElulGRL2z6Sp3dhJy06eli5FVO2v0ggNDlwRhGMA6Qn0CWkXVBCEYGELpcjgL4tcXpqvo7vNDyOYAghZZ4SvNPv/X4+6/5wcrMBfhGcukffeWQIgnLSuuvQWASY5+SKSoS3gzVHS8WQFgKfQ0g6DyDjhXMfQY0Jim/s94bAQRtWAbd7d2oQ8carwGEX3QPglXcJiyKgSCAiBg9NxOIf+oCBwLyg999cgQoXb6JJm+JwqLHd+oUDWhCNOWSBUD+Hi/RwHhtRmU0b+2NlHgcJsot9iMJelqsIcSIws5EG85XIwmZACBZTHTivB6PkauDQvQlgUIEHCdT5CTxeIAp8iduycaKlExnRtOJw8wk5tl2EF1W2gNjqbTX0/8q/QAMMlKMTMI8e12qS41m4+pLic4km/13zCNwth2YpbjCh9V8zycIMO3stwXBxz/59Z3xbJ08mL/NmIWLpXHwEGGsbgJaMAHRvPTnw6ESHGrs7bkIxmYsW9pZwHWF13CvaUbZm36H0wboxBPNryers4+etzDoHf/m32Ica9+C2pPlGgj4t5DrdPIOb6+037twhXXM8V8bgNDJCXT4owHCmtIFEuhub3v50N6B7wDCUAvSj8j5nxthBAiUSCOnyfcHnwQQOiMqhlvIOfPNeSYZm32X/VsBhM0qvQIQSPfb/5+KGBDzI5oO5nI6hzgF+bQtNEZXAEKWg0Dtn9AFNKhjZ57xdE4H4jBcmyu0mvuQn1J2Jt0AERkxaJ06dfi+dl35F9+AuJ6viIEuS06EOO0fcxx1aE1uP+AnAIkCCOS+BZPCDHVnHlOAIJVo2K0RrdeVMJ9g+blVDjGFn5cwOWQAwqRDdSvBwHSsLkAAwBCBhx5B2AME4nL9gqTFwwUQgK8ELvmxmNP+p/zAnKMMnr5osGpnedXxIwg8qfT97B6hW5bXb398edJ1wlNJ74kgeFLrS/J1gKAnqWpa8XRDYPLgccHARqBBVtXhjdUHPwelUSjpO0UQKmF8ApsFJ3YpYoAze9fphWCZaQSpIDNhnUhQPGnFcXnMOqHlEwCCknM24XawGUBopT3HagDCaGQBhNENwAfVNzl7BgjOiYu1QKQIAhI7f/eC9HdgffIjbKaS2qJXb3HeRwwkAwjECwQEWCcFCGzG8EiiJI4KTRrp5IM6tSBPgUnbKOpwpOEDAUIFAO8ci+cXWAqDsLCuoyfXmIwJlsfVFe3yil99p2WYr8AgdCQzGM2gnYo6uQdacbwYk0R3OPmIssb7iLcqIhK4Z+QBfkbb77HggMLJPDCsCBBcAQgGRo/7AOWlIDspG0axG4hKoutJ2ULXeZFikiIl7GbRE2vBL1AXOdIMzFbAQCzRF4icVSpyVykTyX4Gp40X9jxobWjeNgKTBP3wzyxyMAvhPpvrUMWKXVK7+wxzV6l5uA/6oeeAHvrP/XcVnPwI1nuIWNDlRwq2kIMkAKKngPVfikX7W9olNtc2mW/ZzlFIrVlEVwQUoqTFYYnmqYnpMnodE4kCgEAEvFEUYL5nX3kvQNDRptfNlcuTJ7TF8BUBAk0az78DEOjMaAUg9PYkQPsBCI7ROzDCtwGEw9NnFDYsAARaCZXARM0FbEo5IEHawsbeKkBQRv4KcVcBwjKdfq8REjyQHdNwpW6lzI0AIbhlcHiTgJYo6dBj5A9AYK7E32IQOUiwXlszoOVcLR5moXZPgLdrh7M46ur2ZCRhTJmd+wUQZvSbMx3hWwt4FrJjgM8ACMsMeeCPxvj4628zSZH1Sgw+SzLYuJb+Fa1ef7RnAYhmMr8XdRZJE80IgLC6x8maZcVFRgjq12+Gl3o0rvL7ZUmY7P5bbMwqWwwMtJl/6GUWyXlw9sSoRsY1eg7XwHqE2BDIaMwj6yTKjIrGDKMV15Vxz0aO6PAsv0T+Tps8lQ6NmEZ+BRdwHWy/sg1SHXy0pHiC7wXAF+dCRPOAsovRgicY7NkJDu9n7UpX1eaETio4tJn2MEpg6+ClR06JpYI83XOVLjPAOxBalmj9BTQg0Om/m2MUJzDoGR2RjM6pZVsNU7Ss5Dly3R55kYQ+iHlnAUxRa3clRa/0zHXtgD4BIWWRAcKMhnbPZ6II47ZGtVjppoKiG9NuVCIIby0F8ZXXGpQoqHiDiEiApTZ02nLqbDBCMnj6NQEChmbAoOrV4B4goKp+DECIvOAKjevVrW9YdfKlDxKqJl3z4YohN3h7Zd4qKZPlDhDCtYHoYYVtVJzjXQCB5j7g8W8BEDIHeEW20JFXHPdJPyvdrtLy02VSHBJkoKb5BOioESgsir8GQBBHOBupACKQPTyT2WkGRAbz97KRQh4MRh/vOgjon3IeAMCbJmW9RIIjbWd7stHe0cVM61CC3WYYAEHYok4nETuBggIIYEuo7BWAMJsaty7O448Rzp80/n+V4Qx9k48fDAAAAABJRU5ErkJggg==;" parent="1" vertex="1">
                    <mxGeometry width="1455.29" height="820" as="geometry"/>
                </mxCell>
                <mxCell id="ouNmn9zbZDFAW_6o1fG2-2" value="GitHub Professional Services" style="text;html=1;strokeColor=none;fillColor=none;align=left;verticalAlign=middle;whiteSpace=wrap;rounded=0;fontColor=#CCE5FF;fontFamily=varela round;fontSize=18;" parent="1" vertex="1">
                    <mxGeometry x="150" y="35" width="370" height="20" as="geometry"/>
                </mxCell>
                <mxCell id="ouNmn9zbZDFAW_6o1fG2-3" value="" style="shape=image;verticalLabelPosition=bottom;verticalAlign=top;imageAspect=0;aspect=fixed;image=data:image/png,iVBORw0KGgoAAAANSUhEUgAAAHgAAAB4CAYAAAA5ZDbSAAAAGXRFWHRTb2Z0d2FyZQBBZG9iZSBJbWFnZVJlYWR5ccllPAAAAyRpVFh0WE1MOmNvbS5hZG9iZS54bXAAAAAAADw/eHBhY2tldCBiZWdpbj0i77u/IiBpZD0iVzVNME1wQ2VoaUh6cmVTek5UY3prYzlkIj8+IDx4OnhtcG1ldGEgeG1sbnM6eD0iYWRvYmU6bnM6bWV0YS8iIHg6eG1wdGs9IkFkb2JlIFhNUCBDb3JlIDUuNS1jMDIxIDc5LjE1NDkxMSwgMjAxMy8xMC8yOS0xMTo0NzoxNiAgICAgICAgIj4gPHJkZjpSREYgeG1sbnM6cmRmPSJodHRwOi8vd3d3LnczLm9yZy8xOTk5LzAyLzIyLXJkZi1zeW50YXgtbnMjIj4gPHJkZjpEZXNjcmlwdGlvbiByZGY6YWJvdXQ9IiIgeG1sbnM6eG1wTU09Imh0dHA6Ly9ucy5hZG9iZS5jb20veGFwLzEuMC9tbS8iIHhtbG5zOnN0UmVmPSJodHRwOi8vbnMuYWRvYmUuY29tL3hhcC8xLjAvc1R5cGUvUmVzb3VyY2VSZWYjIiB4bWxuczp4bXA9Imh0dHA6Ly9ucy5hZG9iZS5jb20veGFwLzEuMC8iIHhtcE1NOkRvY3VtZW50SUQ9InhtcC5kaWQ6RERCMUIwQTM4NkNFMTFFM0FBNTJFRTMzNTJEMUJDNDYiIHhtcE1NOkluc3RhbmNlSUQ9InhtcC5paWQ6RERCMUIwQTI4NkNFMTFFM0FBNTJFRTMzNTJEMUJDNDYiIHhtcDpDcmVhdG9yVG9vbD0iQWRvYmUgUGhvdG9zaG9wIENTNiAoTWFjaW50b3NoKSI+IDx4bXBNTTpEZXJpdmVkRnJvbSBzdFJlZjppbnN0YW5jZUlEPSJ4bXAuaWlkOkU1MTc4QTMyOTlBMDExRTI5QTE1QkMxMDQ2QTg5MDREIiBzdFJlZjpkb2N1bWVudElEPSJ4bXAuZGlkOjJBNDE0QUJDOTlBMTExRTI5QTE1QkMxMDQ2QTg5MDREIi8+IDwvcmRmOkRlc2NyaXB0aW9uPiA8L3JkZjpSREY+IDwveDp4bXBtZXRhPiA8P3hwYWNrZXQgZW5kPSJyIj8+8kSqyAAADD5JREFUeNrsXQ2QlVUZfllYUBe2YCuQFNel9Q9EcVEQSA3xB2pTSVcESjELnZomBW0ya5w0m1GyzKSmtEYDc6hGohRDrUGQZUko0EARCAXK+FEwXFz2yvY+fO/d+fbu/fm++533+7n3PDPPwC6Xc77zPvc7P+95z3t6dHR0kEXpoleJtGMwcwTzE8w6Zi1zELNG2JfZJ+P/tDEPMPcK32JuY25lbmauZ/476YbpkcA3+BjmucxxwlHMAUp1vc18ifmisJnZagU2jyHMKcxJzPOzvI1hAW/9MuYS5pPMN6zAxeNjzOnMq5mjY/qMLcyFzPnMXVZgb7iQOYt5ObMyIT1hO/MPzJ8xn7cCZ5/sTWXeKpOlJAOTs/uYTzBT5S4whJ3BvIM5tMRWKFuYd0v3nSpHgT/NnMs8pcSXoq8xZzOfKheBT2I+wLy0zHwOzzC/LoKHhooQ68KE6XYZo8pNXJI2rxMbVJbaG3wa83HmGWRBIvQ05oakv8E9mF9hrrHidsEZYpOvio0S+QbD//tL5lVWz7z4HXMmOX7xxAhcz1wkXbNFYWxkXsZ8PQld9HjmKiuuL5wqNhsfd4GbyHHVDbCa+cYAsV1TXAXGOPIbZm+rVdHoLTa8Pm4C3yQTqgqrkRFNHhGbxmKSNVPEtTCPLwa1bVCBm6RLsW+uDg4zryFnzzl0gcfLpMCOubo4RM4e+YowBa6Xab2dLYcDxIaNKWadXIzA8FCtlrWbRXiAM+Qc8unx8jt2wm/6KytuJDhVbN9DU2BsHFwZ8EH3keNof1n+XurYJ21Fm/cHLOtK0UCli4brcS0FD1n9DHWNbjhOJhHYL4U/9uiEC3qQnAC8Z2QSusP1b43MxQHLR+huA/OfJgXGBvXfKPiWHyYLOHHQnuPfq8mJ0UJUZdKC7/CWIqoSMVjv5rHjf5n9A9aF/eSz89jRdxd9G5nZz11S4KFgmHlSF4LcWxIg7Gp51hHy7O/m+Wy72CAoYJ9vmBqDT2Z+25AxXvDxWXRxOKLyOXLOC8UNW2VMHCPP6hXLDdV/h2gTuIv+M/NiQw/VIOO4X2DcnyNftFxzgDdkXHqVuZOcg2MgDpa9J2Njm6s8jPVV5BxOGyz8ODlRnsOYJ+QZA+9h3st8v0gbvGTInkuZlwQRGKGtfzL0MO1i0PYAZcDBAkf8cOZK6RGWy/hnOiIC6/3TyfHYnUfOQTd8gW6gYJGRlfKFMxV4lzlp9SxwL2nQSYYe5M08b4XftTh4OOQuOT2cmah3u6weTOB1WeGk/I7BMwyKC7xlqJyOCMRNC2uq3v8YfK560crXJKtSBnHT60MLB6bPGEOr3n4ExkGwoVaHxABaXe1H4DkKD3GU1aETGt66W70KPJF0vEgnWF07MUShzNNFu4IC36jUqIHMflbbIzYYqFT2TYUERtqEzypVjqXNWVbfIzbQOq7SKBrmFHgG6Z58m2j1VbVBZeaSKVPgJuXGNVp91W3QlEtgJBDTzmZzt9VX3Qaj3Utct8CXK1d8Fzkn6codsMF3leu4LJvAkxQrXBVCo5KEu8QmWpjcObOVzQakB0S0hUYGuQ9kjbbR6toF2JbELphGvlBsaSKkuTX9Bo8jvfSAD1lxs+JVsY0G+oimnV30WKWKsCH+PatlTtxDxQUNeMFYt8DjlCr5NcU0h2NMsEtspIFx7jF4L+kcQ8GUfbXVMS9wWkEjuBBzqhoIjDikHQoVbCW75egVW8QPYRrHoYvWij9+2urmGUuUyh0BgeuVCl9hdYvcVvUQuFapcDv2Rm+rWi2BERr7ptXNM2CrlJbAgxQKRljoB1Y3z4C4OxXKHQSBaxQK/p/VzDc0jtLWaAm83+rlGwe0BNaIk+pp9fINjU2HfhBYI0tOX6uXb2iEFffWym9VZfXyjWqNQrUEtrmzYmIz+KI1EkYfki7HXm3q/UXDtmGlRsEppW/jYKubZwwmnXDlVIXikuZEq5tn1CmVu7+C9HJV1VndIn8Z9kHg3UqFj7K6ecbZSuXuhsA7lQofa3WL3FY7NQU+k5xwXIvCPoMRmgJvVioc7soJVr+CmEB6rt3NEHiT4sNPsfoVxBWKZW+CowPpfLYrVYBtQ+w3t1odswJDGLIPaR2MPx5vMCIq9ypVgAefbnXMiemK4iJsdkfaF71GsRG3kL20Ixt6iW20cCRdYtrwKxUrwiGra62e3fB50r39vNkt8IvKjcEZnGqraSeqxSaaWOEWGD+0KVaGidb9VtdO/Ih0gh3TaMsUGFtVy5UbhVu8plltjyRJmalcx3LRtMvk548hNO5hcpJ8lytw4u/nIdTTmQLanU4Ymei2hVA5Ut4jwXhLmYmLk5ZLQ5qL1JKTIL3LG4xfhHHcpFoaenEZiYv8J8+GJO7qtLiUZX26IMRZJE7U3UmlHWKLtiFt0lMUXhrHx90/ZGZ8/yg5u0uVIRoBSzRc9rSuxMRFysJ5pJ97zA2cCYPreVeuNxib/4simHjAk/YT0snCGjYQnfELcjxJo0OuexFlpMzIdmfDBcy/+ii0WWZtKBjZArB5jS2wXkV+AzFM/JSSdfwUyUU/SU6m3qYIh50JmdrlupQDV9+M9FAgbg/5EHU/SYiu/mbmbCo+3hepl56QL8/fKX4huD1lyYekY1Mp+iBDDHFndvvm5RAYi3Gv2V9uZ34/y0IbnpTH5I0cGfDhcR3cC9Jb4Iq9Vyj8iy0xtuE6n1HSS0HcD8foCwff9nyvAqN7RaIur0lUHiDnqrU215pvgMyUEZKykFzp9QwB25xbZD39TTJ/Ewsmmj+WttRJTxVXwA7YuOge4w6Bc/DaDn/YyByZUcYVzGXMY+VP0ziQpU6TbGC+3xF/XJerDfkaV8Fc77OiVuYlrjKGMXczJzFrmNsNN2yWorhpfi3m4r4sWmV9/kJX28ED4zcdEu5HQlbzbHvMkynPNWxFTCrOIv1LsjCZQtLQuN56PpnypGEqFGmxhPzfXYgrY35PXe8OqBJXHcaIRw017D4K5wY0rBDujam4T1OBHFtebh/FRAt3GPrNRovdqfQFH8fIpAj37OG2TORKPjlAwxDMN5DCu02trziB4nT3Eya0w2SCRcW+wekZ2neKeIBG18y5VTxWt8nyppGCBdz/hcK9Ku+A1Bkn3FlIXK8CA/dTcXfe/sBVBxwXy6S7xloSV9duKLJxKyMwaJwy98G1O9fLB70KnBLnh9+35hTqfssI7uPFjseD5By6wpfgkI8yEai/NAKjxiWp+UHRImVSYOA1cT/6xeyMn58jJ7LjoHTdc8TN9y1ydpYyg+T3iGcM9xyMkS/NPyIw7LaYCHyzOKG8oYh14fwi1mrn5invROazzAeZR8nv+jOHMPu5PjeKOZd5fghr32ysjcGad4Hf5y6moVXMdT4frJnZM0d5dcw98rkG+d158rsNIjZ+t1Y+Mz8igT8SsbhwOvX1+9zFnDh4T5Y/fg6Oj5FZXzYgcfjx5ISRrnGNM0jQ+S+Xfxt3AV3KvD6irjEVYbe8R2zuOxuel3VwLmA35XnydxcuIjfmUTKBnaN3IppUTSx25RDkzBC27qb69CY9JNP7ygQKHMUzw7bTgiwLgx4KW8z8gk+RMatGQMFFCRO4KgJxYdtAIVQmTv0tkHHRj8jDZS2Lvdwbyd8xjmOp9JOdwpazyECUa5AxOBM46/pYgC8N3G6vyHpzn6yHEeuEdMfYuKgl54o8BBL0p/AjOmpl0hfWm2skhNlkCls8EJKqLfQ58UpjKHmPIOlTom/uQZnXLDZVoOmD2dha/BTp33Z2dAmKC5tdaFJcDYFJxtVzInInJhXrxWbNpgvWSq2AszHYVHjUalcQiF4dS67zREkQGIDH6zrmDfJ3i+72+ZJMqNTsE0ZylEfICchusZp2GcYQT/awdkVhZb9BNj1EdNxC4UZixHGWPEdssSmMCsNMb4TgtR+SE534ZBmKizafRk6AQ2iXhkWRvwqTiSmyJFhbBsLiXNVF0uZtYVceZYIyBLEhNusa8h8Ok4SUTBulbWjjc1E9RNQZ6OAnxQlC+KZx7HKVx//3dgTP6jXNVIu0Zbi07XCUBjbpizYFBAekz9lm81itoeiyySOytCGH+L8l51zzyjgZM44Cp4EN9qvI2cRAcAE2HnC4+ctaTgEPqCXn9P4F8maix1kg4r4TRyPGWWCLEhiDLZTxfwEGAIg2ItsKhKpcAAAAAElFTkSuQmCC;fontFamily=varela round;fontColor=#CCE5FF;" parent="1" vertex="1">
                    <mxGeometry x="110" y="30" width="30" height="30" as="geometry"/>
                </mxCell>
            </root>
        </mxGraphModel>
    </diagram>
</mxfile>